<mxfile host="Electron" modified="2023-12-20T10:40:48.253Z" agent="Mozilla/5.0 (Macintosh; Intel Mac OS X 10_15_7) AppleWebKit/537.36 (KHTML, like Gecko) draw.io/22.1.2 Chrome/114.0.5735.289 Electron/25.9.4 Safari/537.36" etag="7WcUQwU__G3_S--VGeEg" version="22.1.2" type="device">
  <diagram name="Page-1" id="pdl15wz-G_jokOoiUY8N">
    <mxGraphModel dx="1026" dy="1912" grid="1" gridSize="10" guides="1" tooltips="1" connect="1" arrows="1" fold="1" page="1" pageScale="1" pageWidth="827" pageHeight="1169" math="0" shadow="0">
      <root>
        <mxCell id="0" />
        <mxCell id="1" parent="0" />
        <mxCell id="skYAwQOYRxRkHQXPUjND-1" value="&lt;font size=&quot;1&quot; face=&quot;Times New Roman&quot;&gt;&lt;b style=&quot;font-size: 15px;&quot;&gt;1.2&lt;/b&gt;&lt;/font&gt;" style="ellipse;whiteSpace=wrap;html=1;fillColor=#dae8fc;strokeColor=#6c8ebf;strokeWidth=2;align=center;verticalAlign=middle;spacing=0;spacingTop=-4;" parent="1" vertex="1">
          <mxGeometry x="250" y="-910" width="40" height="40" as="geometry" />
        </mxCell>
        <mxCell id="jl4wp86xwNKo0DiwbWFK-2" value="&lt;font size=&quot;1&quot; face=&quot;Times New Roman&quot;&gt;&lt;b style=&quot;font-size: 15px;&quot;&gt;1.0&lt;/b&gt;&lt;/font&gt;" style="ellipse;whiteSpace=wrap;html=1;fillColor=#ffe6cc;strokeColor=#d79b00;strokeWidth=2;align=center;verticalAlign=middle;spacing=0;spacingTop=-4;" parent="1" vertex="1">
          <mxGeometry x="414" y="-910" width="40" height="40" as="geometry" />
        </mxCell>
        <mxCell id="jl4wp86xwNKo0DiwbWFK-37" value="" style="group" parent="1" vertex="1" connectable="0">
          <mxGeometry x="330" y="-880" width="40" height="15" as="geometry" />
        </mxCell>
        <mxCell id="jl4wp86xwNKo0DiwbWFK-11" value="" style="group" parent="jl4wp86xwNKo0DiwbWFK-37" vertex="1" connectable="0">
          <mxGeometry width="40" height="15" as="geometry" />
        </mxCell>
        <mxCell id="jl4wp86xwNKo0DiwbWFK-12" value="" style="rounded=0;whiteSpace=wrap;html=1;" parent="jl4wp86xwNKo0DiwbWFK-11" vertex="1">
          <mxGeometry width="40" height="15" as="geometry" />
        </mxCell>
        <mxCell id="jl4wp86xwNKo0DiwbWFK-13" value="" style="endArrow=none;html=1;rounded=0;entryX=0.25;entryY=0;entryDx=0;entryDy=0;" parent="jl4wp86xwNKo0DiwbWFK-11" target="jl4wp86xwNKo0DiwbWFK-12" edge="1">
          <mxGeometry width="50" height="50" relative="1" as="geometry">
            <mxPoint x="10" y="15" as="sourcePoint" />
            <mxPoint x="60" y="30" as="targetPoint" />
          </mxGeometry>
        </mxCell>
        <mxCell id="jl4wp86xwNKo0DiwbWFK-14" value="" style="endArrow=none;html=1;rounded=0;entryX=0.5;entryY=0;entryDx=0;entryDy=0;" parent="jl4wp86xwNKo0DiwbWFK-11" target="jl4wp86xwNKo0DiwbWFK-12" edge="1">
          <mxGeometry width="50" height="50" relative="1" as="geometry">
            <mxPoint x="20" y="15" as="sourcePoint" />
            <mxPoint x="20" y="7.5" as="targetPoint" />
          </mxGeometry>
        </mxCell>
        <mxCell id="jl4wp86xwNKo0DiwbWFK-15" value="" style="endArrow=none;html=1;rounded=0;entryX=0.75;entryY=0;entryDx=0;entryDy=0;" parent="jl4wp86xwNKo0DiwbWFK-11" target="jl4wp86xwNKo0DiwbWFK-12" edge="1">
          <mxGeometry width="50" height="50" relative="1" as="geometry">
            <mxPoint x="30" y="15" as="sourcePoint" />
            <mxPoint x="30" y="15" as="targetPoint" />
          </mxGeometry>
        </mxCell>
        <mxCell id="jl4wp86xwNKo0DiwbWFK-16" value="" style="endArrow=classic;html=1;rounded=0;exitX=0;exitY=1;exitDx=0;exitDy=0;entryX=1;entryY=0.5;entryDx=0;entryDy=0;" parent="jl4wp86xwNKo0DiwbWFK-37" source="jl4wp86xwNKo0DiwbWFK-2" target="jl4wp86xwNKo0DiwbWFK-12" edge="1">
          <mxGeometry width="50" height="50" relative="1" as="geometry">
            <mxPoint x="50" y="-15" as="sourcePoint" />
            <mxPoint x="94" as="targetPoint" />
          </mxGeometry>
        </mxCell>
        <mxCell id="jl4wp86xwNKo0DiwbWFK-17" value="" style="endArrow=classic;html=1;rounded=0;exitX=0;exitY=0.5;exitDx=0;exitDy=0;entryX=1;entryY=1;entryDx=0;entryDy=0;" parent="jl4wp86xwNKo0DiwbWFK-37" source="jl4wp86xwNKo0DiwbWFK-12" target="skYAwQOYRxRkHQXPUjND-1" edge="1">
          <mxGeometry width="50" height="50" relative="1" as="geometry">
            <mxPoint x="94" as="sourcePoint" />
            <mxPoint x="50" y="15" as="targetPoint" />
          </mxGeometry>
        </mxCell>
        <mxCell id="jl4wp86xwNKo0DiwbWFK-56" value="" style="group" parent="1" vertex="1" connectable="0">
          <mxGeometry x="330" y="-920" width="40" height="15" as="geometry" />
        </mxCell>
        <mxCell id="jl4wp86xwNKo0DiwbWFK-8" value="" style="group" parent="jl4wp86xwNKo0DiwbWFK-56" vertex="1" connectable="0">
          <mxGeometry width="40" height="15" as="geometry" />
        </mxCell>
        <mxCell id="jl4wp86xwNKo0DiwbWFK-4" value="" style="rounded=0;whiteSpace=wrap;html=1;" parent="jl4wp86xwNKo0DiwbWFK-8" vertex="1">
          <mxGeometry width="40" height="15" as="geometry" />
        </mxCell>
        <mxCell id="jl4wp86xwNKo0DiwbWFK-5" value="" style="endArrow=none;html=1;rounded=0;entryX=0.25;entryY=0;entryDx=0;entryDy=0;" parent="jl4wp86xwNKo0DiwbWFK-8" target="jl4wp86xwNKo0DiwbWFK-4" edge="1">
          <mxGeometry width="50" height="50" relative="1" as="geometry">
            <mxPoint x="10" y="15" as="sourcePoint" />
            <mxPoint x="60" y="30" as="targetPoint" />
          </mxGeometry>
        </mxCell>
        <mxCell id="jl4wp86xwNKo0DiwbWFK-6" value="" style="endArrow=none;html=1;rounded=0;entryX=0.5;entryY=0;entryDx=0;entryDy=0;" parent="jl4wp86xwNKo0DiwbWFK-8" target="jl4wp86xwNKo0DiwbWFK-4" edge="1">
          <mxGeometry width="50" height="50" relative="1" as="geometry">
            <mxPoint x="20" y="15" as="sourcePoint" />
            <mxPoint x="20" y="7.5" as="targetPoint" />
          </mxGeometry>
        </mxCell>
        <mxCell id="jl4wp86xwNKo0DiwbWFK-7" value="" style="endArrow=none;html=1;rounded=0;entryX=0.75;entryY=0;entryDx=0;entryDy=0;" parent="jl4wp86xwNKo0DiwbWFK-8" target="jl4wp86xwNKo0DiwbWFK-4" edge="1">
          <mxGeometry width="50" height="50" relative="1" as="geometry">
            <mxPoint x="30" y="15" as="sourcePoint" />
            <mxPoint x="30" y="15" as="targetPoint" />
          </mxGeometry>
        </mxCell>
        <mxCell id="jl4wp86xwNKo0DiwbWFK-9" value="" style="endArrow=classic;html=1;rounded=0;exitX=1;exitY=0.5;exitDx=0;exitDy=0;entryX=0;entryY=0;entryDx=0;entryDy=0;" parent="jl4wp86xwNKo0DiwbWFK-56" source="jl4wp86xwNKo0DiwbWFK-4" target="jl4wp86xwNKo0DiwbWFK-2" edge="1">
          <mxGeometry width="50" height="50" relative="1" as="geometry">
            <mxPoint x="-30" y="30" as="sourcePoint" />
            <mxPoint x="10" y="15" as="targetPoint" />
          </mxGeometry>
        </mxCell>
        <mxCell id="jl4wp86xwNKo0DiwbWFK-3" value="" style="endArrow=classic;html=1;rounded=0;exitX=1;exitY=0;exitDx=0;exitDy=0;entryX=0;entryY=0.5;entryDx=0;entryDy=0;" parent="1" source="skYAwQOYRxRkHQXPUjND-1" target="jl4wp86xwNKo0DiwbWFK-4" edge="1">
          <mxGeometry width="50" height="50" relative="1" as="geometry">
            <mxPoint x="-270" y="1120" as="sourcePoint" />
            <mxPoint x="-320" y="936" as="targetPoint" />
          </mxGeometry>
        </mxCell>
        <mxCell id="jl4wp86xwNKo0DiwbWFK-57" value="&lt;font size=&quot;1&quot; face=&quot;Times New Roman&quot;&gt;&lt;b style=&quot;font-size: 15px;&quot;&gt;1.0&lt;/b&gt;&lt;/font&gt;" style="ellipse;whiteSpace=wrap;html=1;fillColor=#dae8fc;strokeColor=#6c8ebf;strokeWidth=2;align=center;verticalAlign=middle;spacing=0;spacingTop=-4;" parent="1" vertex="1">
          <mxGeometry x="270" y="-785" width="40" height="40" as="geometry" />
        </mxCell>
        <mxCell id="jl4wp86xwNKo0DiwbWFK-58" value="&lt;font size=&quot;1&quot; face=&quot;Times New Roman&quot;&gt;&lt;b style=&quot;font-size: 15px;&quot;&gt;1.1&lt;/b&gt;&lt;/font&gt;" style="ellipse;whiteSpace=wrap;html=1;fillColor=#ffe6cc;strokeColor=#d79b00;strokeWidth=2;align=center;verticalAlign=middle;spacing=0;spacingTop=-4;" parent="1" vertex="1">
          <mxGeometry x="414" y="-785" width="40" height="40" as="geometry" />
        </mxCell>
        <mxCell id="jl4wp86xwNKo0DiwbWFK-59" value="" style="group" parent="1" vertex="1" connectable="0">
          <mxGeometry x="340" y="-760" width="40" height="15" as="geometry" />
        </mxCell>
        <mxCell id="jl4wp86xwNKo0DiwbWFK-60" value="" style="group" parent="jl4wp86xwNKo0DiwbWFK-59" vertex="1" connectable="0">
          <mxGeometry width="40" height="15" as="geometry" />
        </mxCell>
        <mxCell id="jl4wp86xwNKo0DiwbWFK-61" value="" style="rounded=0;whiteSpace=wrap;html=1;" parent="jl4wp86xwNKo0DiwbWFK-60" vertex="1">
          <mxGeometry width="40" height="15" as="geometry" />
        </mxCell>
        <mxCell id="jl4wp86xwNKo0DiwbWFK-62" value="" style="endArrow=none;html=1;rounded=0;entryX=0.25;entryY=0;entryDx=0;entryDy=0;" parent="jl4wp86xwNKo0DiwbWFK-60" target="jl4wp86xwNKo0DiwbWFK-61" edge="1">
          <mxGeometry width="50" height="50" relative="1" as="geometry">
            <mxPoint x="10" y="15" as="sourcePoint" />
            <mxPoint x="60" y="30" as="targetPoint" />
          </mxGeometry>
        </mxCell>
        <mxCell id="jl4wp86xwNKo0DiwbWFK-63" value="" style="endArrow=none;html=1;rounded=0;entryX=0.5;entryY=0;entryDx=0;entryDy=0;" parent="jl4wp86xwNKo0DiwbWFK-60" target="jl4wp86xwNKo0DiwbWFK-61" edge="1">
          <mxGeometry width="50" height="50" relative="1" as="geometry">
            <mxPoint x="20" y="15" as="sourcePoint" />
            <mxPoint x="20" y="7.5" as="targetPoint" />
          </mxGeometry>
        </mxCell>
        <mxCell id="jl4wp86xwNKo0DiwbWFK-64" value="" style="endArrow=none;html=1;rounded=0;entryX=0.75;entryY=0;entryDx=0;entryDy=0;" parent="jl4wp86xwNKo0DiwbWFK-60" target="jl4wp86xwNKo0DiwbWFK-61" edge="1">
          <mxGeometry width="50" height="50" relative="1" as="geometry">
            <mxPoint x="30" y="15" as="sourcePoint" />
            <mxPoint x="30" y="15" as="targetPoint" />
          </mxGeometry>
        </mxCell>
        <mxCell id="jl4wp86xwNKo0DiwbWFK-65" value="" style="endArrow=classic;html=1;rounded=0;entryX=1;entryY=0.5;entryDx=0;entryDy=0;exitX=0;exitY=1;exitDx=0;exitDy=0;" parent="1" source="jl4wp86xwNKo0DiwbWFK-58" target="jl4wp86xwNKo0DiwbWFK-61" edge="1">
          <mxGeometry width="50" height="50" relative="1" as="geometry">
            <mxPoint x="600" y="-770" as="sourcePoint" />
            <mxPoint x="412" y="-850" as="targetPoint" />
          </mxGeometry>
        </mxCell>
        <mxCell id="jl4wp86xwNKo0DiwbWFK-66" value="" style="endArrow=classic;html=1;rounded=0;exitX=0;exitY=0.5;exitDx=0;exitDy=0;entryX=1;entryY=1;entryDx=0;entryDy=0;" parent="1" source="jl4wp86xwNKo0DiwbWFK-61" target="jl4wp86xwNKo0DiwbWFK-57" edge="1">
          <mxGeometry width="50" height="50" relative="1" as="geometry">
            <mxPoint x="412" y="-850" as="sourcePoint" />
            <mxPoint x="490" y="-770" as="targetPoint" />
          </mxGeometry>
        </mxCell>
        <mxCell id="jl4wp86xwNKo0DiwbWFK-67" value="" style="group" parent="1" vertex="1" connectable="0">
          <mxGeometry x="340" y="-790" width="40" height="15" as="geometry" />
        </mxCell>
        <mxCell id="jl4wp86xwNKo0DiwbWFK-68" value="" style="group" parent="jl4wp86xwNKo0DiwbWFK-67" vertex="1" connectable="0">
          <mxGeometry width="40" height="15" as="geometry" />
        </mxCell>
        <mxCell id="jl4wp86xwNKo0DiwbWFK-69" value="" style="rounded=0;whiteSpace=wrap;html=1;" parent="jl4wp86xwNKo0DiwbWFK-68" vertex="1">
          <mxGeometry width="40" height="15" as="geometry" />
        </mxCell>
        <mxCell id="jl4wp86xwNKo0DiwbWFK-70" value="" style="endArrow=none;html=1;rounded=0;entryX=0.25;entryY=0;entryDx=0;entryDy=0;" parent="jl4wp86xwNKo0DiwbWFK-68" target="jl4wp86xwNKo0DiwbWFK-69" edge="1">
          <mxGeometry width="50" height="50" relative="1" as="geometry">
            <mxPoint x="10" y="15" as="sourcePoint" />
            <mxPoint x="60" y="30" as="targetPoint" />
          </mxGeometry>
        </mxCell>
        <mxCell id="jl4wp86xwNKo0DiwbWFK-71" value="" style="endArrow=none;html=1;rounded=0;entryX=0.5;entryY=0;entryDx=0;entryDy=0;" parent="jl4wp86xwNKo0DiwbWFK-68" target="jl4wp86xwNKo0DiwbWFK-69" edge="1">
          <mxGeometry width="50" height="50" relative="1" as="geometry">
            <mxPoint x="20" y="15" as="sourcePoint" />
            <mxPoint x="20" y="7.5" as="targetPoint" />
          </mxGeometry>
        </mxCell>
        <mxCell id="jl4wp86xwNKo0DiwbWFK-72" value="" style="endArrow=none;html=1;rounded=0;entryX=0.75;entryY=0;entryDx=0;entryDy=0;" parent="jl4wp86xwNKo0DiwbWFK-68" target="jl4wp86xwNKo0DiwbWFK-69" edge="1">
          <mxGeometry width="50" height="50" relative="1" as="geometry">
            <mxPoint x="30" y="15" as="sourcePoint" />
            <mxPoint x="30" y="15" as="targetPoint" />
          </mxGeometry>
        </mxCell>
        <mxCell id="jl4wp86xwNKo0DiwbWFK-73" value="" style="endArrow=classic;html=1;rounded=0;exitX=1;exitY=0.5;exitDx=0;exitDy=0;entryX=0;entryY=0;entryDx=0;entryDy=0;" parent="1" source="jl4wp86xwNKo0DiwbWFK-69" target="jl4wp86xwNKo0DiwbWFK-58" edge="1">
          <mxGeometry width="50" height="50" relative="1" as="geometry">
            <mxPoint x="488" y="-770" as="sourcePoint" />
            <mxPoint x="590" y="-810" as="targetPoint" />
          </mxGeometry>
        </mxCell>
        <mxCell id="jl4wp86xwNKo0DiwbWFK-74" value="" style="endArrow=classic;html=1;rounded=0;entryX=0;entryY=0.5;entryDx=0;entryDy=0;exitX=1;exitY=0;exitDx=0;exitDy=0;" parent="1" source="jl4wp86xwNKo0DiwbWFK-57" target="jl4wp86xwNKo0DiwbWFK-69" edge="1">
          <mxGeometry width="50" height="50" relative="1" as="geometry">
            <mxPoint x="490" y="-810" as="sourcePoint" />
            <mxPoint x="-132" y="1046" as="targetPoint" />
          </mxGeometry>
        </mxCell>
        <mxCell id="jl4wp86xwNKo0DiwbWFK-75" value="&lt;font size=&quot;1&quot; face=&quot;Times New Roman&quot;&gt;&lt;b style=&quot;font-size: 15px;&quot;&gt;1.3&lt;/b&gt;&lt;/font&gt;" style="ellipse;whiteSpace=wrap;html=1;fillColor=#f8cecc;strokeColor=#b85450;strokeWidth=2;align=center;verticalAlign=middle;spacing=0;spacingTop=-4;" parent="1" vertex="1">
          <mxGeometry x="414" y="-675" width="40" height="40" as="geometry" />
        </mxCell>
        <mxCell id="jl4wp86xwNKo0DiwbWFK-76" value="&lt;font size=&quot;1&quot; face=&quot;Times New Roman&quot;&gt;&lt;b style=&quot;font-size: 15px;&quot;&gt;1.2&lt;/b&gt;&lt;/font&gt;" style="ellipse;whiteSpace=wrap;html=1;fillColor=#d5e8d4;strokeColor=#82b366;strokeWidth=2;align=center;verticalAlign=middle;spacing=0;spacingTop=-4;" parent="1" vertex="1">
          <mxGeometry x="270" y="-675" width="40" height="40" as="geometry" />
        </mxCell>
        <mxCell id="jl4wp86xwNKo0DiwbWFK-84" value="" style="group;rotation=-90;" parent="1" vertex="1" connectable="0">
          <mxGeometry x="250" y="-720" width="40" height="15" as="geometry" />
        </mxCell>
        <mxCell id="jl4wp86xwNKo0DiwbWFK-85" value="" style="group;rotation=-90;" parent="jl4wp86xwNKo0DiwbWFK-84" vertex="1" connectable="0">
          <mxGeometry width="40" height="15" as="geometry" />
        </mxCell>
        <mxCell id="jl4wp86xwNKo0DiwbWFK-86" value="" style="rounded=0;whiteSpace=wrap;html=1;rotation=-90;" parent="jl4wp86xwNKo0DiwbWFK-85" vertex="1">
          <mxGeometry width="40" height="15" as="geometry" />
        </mxCell>
        <mxCell id="jl4wp86xwNKo0DiwbWFK-87" value="" style="endArrow=none;html=1;rounded=0;entryX=0.25;entryY=0;entryDx=0;entryDy=0;exitX=0.25;exitY=1;exitDx=0;exitDy=0;" parent="jl4wp86xwNKo0DiwbWFK-85" source="jl4wp86xwNKo0DiwbWFK-86" target="jl4wp86xwNKo0DiwbWFK-86" edge="1">
          <mxGeometry width="50" height="50" relative="1" as="geometry">
            <mxPoint x="30" y="15" as="sourcePoint" />
            <mxPoint x="50" y="-22.5" as="targetPoint" />
          </mxGeometry>
        </mxCell>
        <mxCell id="jl4wp86xwNKo0DiwbWFK-88" value="" style="endArrow=none;html=1;rounded=0;entryX=0.5;entryY=0;entryDx=0;entryDy=0;exitX=0.5;exitY=1;exitDx=0;exitDy=0;" parent="jl4wp86xwNKo0DiwbWFK-85" source="jl4wp86xwNKo0DiwbWFK-86" target="jl4wp86xwNKo0DiwbWFK-86" edge="1">
          <mxGeometry width="50" height="50" relative="1" as="geometry">
            <mxPoint x="30" y="7.5" as="sourcePoint" />
            <mxPoint x="20" y="7.5" as="targetPoint" />
          </mxGeometry>
        </mxCell>
        <mxCell id="jl4wp86xwNKo0DiwbWFK-89" value="" style="endArrow=none;html=1;rounded=0;entryX=0.75;entryY=0;entryDx=0;entryDy=0;exitX=0.75;exitY=1;exitDx=0;exitDy=0;" parent="jl4wp86xwNKo0DiwbWFK-85" source="jl4wp86xwNKo0DiwbWFK-86" target="jl4wp86xwNKo0DiwbWFK-86" edge="1">
          <mxGeometry width="50" height="50" relative="1" as="geometry">
            <mxPoint x="30" as="sourcePoint" />
            <mxPoint x="30" as="targetPoint" />
          </mxGeometry>
        </mxCell>
        <mxCell id="jl4wp86xwNKo0DiwbWFK-90" value="" style="endArrow=classic;html=1;rounded=0;exitX=1;exitY=0.5;exitDx=0;exitDy=0;entryX=0;entryY=1;entryDx=0;entryDy=0;" parent="1" source="jl4wp86xwNKo0DiwbWFK-86" target="jl4wp86xwNKo0DiwbWFK-57" edge="1">
          <mxGeometry width="50" height="50" relative="1" as="geometry">
            <mxPoint x="498" y="-760" as="sourcePoint" />
            <mxPoint x="220" y="-730" as="targetPoint" />
          </mxGeometry>
        </mxCell>
        <mxCell id="jl4wp86xwNKo0DiwbWFK-91" value="" style="endArrow=classic;html=1;rounded=0;entryX=0;entryY=0.5;entryDx=0;entryDy=0;exitX=0;exitY=0;exitDx=0;exitDy=0;" parent="1" source="jl4wp86xwNKo0DiwbWFK-76" target="jl4wp86xwNKo0DiwbWFK-86" edge="1">
          <mxGeometry width="50" height="50" relative="1" as="geometry">
            <mxPoint x="200" y="-630" as="sourcePoint" />
            <mxPoint x="-122" y="1056" as="targetPoint" />
          </mxGeometry>
        </mxCell>
        <mxCell id="jl4wp86xwNKo0DiwbWFK-99" value="" style="endArrow=classic;html=1;rounded=0;exitX=1;exitY=0.5;exitDx=0;exitDy=0;entryX=1;entryY=0;entryDx=0;entryDy=0;" parent="1" target="jl4wp86xwNKo0DiwbWFK-76" edge="1">
          <mxGeometry width="50" height="50" relative="1" as="geometry">
            <mxPoint x="310" y="-692.5" as="sourcePoint" />
            <mxPoint x="390" y="-710" as="targetPoint" />
          </mxGeometry>
        </mxCell>
        <mxCell id="jl4wp86xwNKo0DiwbWFK-100" value="" style="endArrow=classic;html=1;rounded=0;entryX=0;entryY=0.5;entryDx=0;entryDy=0;exitX=1;exitY=1;exitDx=0;exitDy=0;" parent="1" source="jl4wp86xwNKo0DiwbWFK-57" edge="1">
          <mxGeometry width="50" height="50" relative="1" as="geometry">
            <mxPoint x="310" y="-690" as="sourcePoint" />
            <mxPoint x="310" y="-732.5" as="targetPoint" />
          </mxGeometry>
        </mxCell>
        <mxCell id="jl4wp86xwNKo0DiwbWFK-101" value="" style="group" parent="1" vertex="1" connectable="0">
          <mxGeometry x="340" y="-640" width="40" height="15" as="geometry" />
        </mxCell>
        <mxCell id="jl4wp86xwNKo0DiwbWFK-102" value="" style="group" parent="jl4wp86xwNKo0DiwbWFK-101" vertex="1" connectable="0">
          <mxGeometry width="40" height="15" as="geometry" />
        </mxCell>
        <mxCell id="jl4wp86xwNKo0DiwbWFK-103" value="" style="rounded=0;whiteSpace=wrap;html=1;" parent="jl4wp86xwNKo0DiwbWFK-102" vertex="1">
          <mxGeometry width="40" height="15" as="geometry" />
        </mxCell>
        <mxCell id="jl4wp86xwNKo0DiwbWFK-104" value="" style="endArrow=none;html=1;rounded=0;entryX=0.25;entryY=0;entryDx=0;entryDy=0;" parent="jl4wp86xwNKo0DiwbWFK-102" target="jl4wp86xwNKo0DiwbWFK-103" edge="1">
          <mxGeometry width="50" height="50" relative="1" as="geometry">
            <mxPoint x="10" y="15" as="sourcePoint" />
            <mxPoint x="60" y="30" as="targetPoint" />
          </mxGeometry>
        </mxCell>
        <mxCell id="jl4wp86xwNKo0DiwbWFK-105" value="" style="endArrow=none;html=1;rounded=0;entryX=0.5;entryY=0;entryDx=0;entryDy=0;" parent="jl4wp86xwNKo0DiwbWFK-102" target="jl4wp86xwNKo0DiwbWFK-103" edge="1">
          <mxGeometry width="50" height="50" relative="1" as="geometry">
            <mxPoint x="20" y="15" as="sourcePoint" />
            <mxPoint x="20" y="7.5" as="targetPoint" />
          </mxGeometry>
        </mxCell>
        <mxCell id="jl4wp86xwNKo0DiwbWFK-106" value="" style="endArrow=none;html=1;rounded=0;entryX=0.75;entryY=0;entryDx=0;entryDy=0;" parent="jl4wp86xwNKo0DiwbWFK-102" target="jl4wp86xwNKo0DiwbWFK-103" edge="1">
          <mxGeometry width="50" height="50" relative="1" as="geometry">
            <mxPoint x="30" y="15" as="sourcePoint" />
            <mxPoint x="30" y="15" as="targetPoint" />
          </mxGeometry>
        </mxCell>
        <mxCell id="jl4wp86xwNKo0DiwbWFK-107" value="" style="endArrow=classic;html=1;rounded=0;entryX=1;entryY=0.5;entryDx=0;entryDy=0;exitX=0;exitY=1;exitDx=0;exitDy=0;" parent="1" source="jl4wp86xwNKo0DiwbWFK-75" target="jl4wp86xwNKo0DiwbWFK-103" edge="1">
          <mxGeometry width="50" height="50" relative="1" as="geometry">
            <mxPoint x="418" y="-636" as="sourcePoint" />
            <mxPoint x="410" y="-730" as="targetPoint" />
          </mxGeometry>
        </mxCell>
        <mxCell id="jl4wp86xwNKo0DiwbWFK-108" value="" style="endArrow=classic;html=1;rounded=0;exitX=0;exitY=0.5;exitDx=0;exitDy=0;entryX=1;entryY=1;entryDx=0;entryDy=0;" parent="1" source="jl4wp86xwNKo0DiwbWFK-103" target="jl4wp86xwNKo0DiwbWFK-76" edge="1">
          <mxGeometry width="50" height="50" relative="1" as="geometry">
            <mxPoint x="410" y="-730" as="sourcePoint" />
            <mxPoint x="302" y="-636" as="targetPoint" />
          </mxGeometry>
        </mxCell>
        <mxCell id="jl4wp86xwNKo0DiwbWFK-109" value="" style="group" parent="1" vertex="1" connectable="0">
          <mxGeometry x="340" y="-680" width="40" height="15" as="geometry" />
        </mxCell>
        <mxCell id="jl4wp86xwNKo0DiwbWFK-110" value="" style="group" parent="jl4wp86xwNKo0DiwbWFK-109" vertex="1" connectable="0">
          <mxGeometry width="40" height="15" as="geometry" />
        </mxCell>
        <mxCell id="jl4wp86xwNKo0DiwbWFK-111" value="" style="rounded=0;whiteSpace=wrap;html=1;" parent="jl4wp86xwNKo0DiwbWFK-110" vertex="1">
          <mxGeometry width="40" height="15" as="geometry" />
        </mxCell>
        <mxCell id="jl4wp86xwNKo0DiwbWFK-112" value="" style="endArrow=none;html=1;rounded=0;entryX=0.25;entryY=0;entryDx=0;entryDy=0;" parent="jl4wp86xwNKo0DiwbWFK-110" target="jl4wp86xwNKo0DiwbWFK-111" edge="1">
          <mxGeometry width="50" height="50" relative="1" as="geometry">
            <mxPoint x="10" y="15" as="sourcePoint" />
            <mxPoint x="60" y="30" as="targetPoint" />
          </mxGeometry>
        </mxCell>
        <mxCell id="jl4wp86xwNKo0DiwbWFK-113" value="" style="endArrow=none;html=1;rounded=0;entryX=0.5;entryY=0;entryDx=0;entryDy=0;" parent="jl4wp86xwNKo0DiwbWFK-110" target="jl4wp86xwNKo0DiwbWFK-111" edge="1">
          <mxGeometry width="50" height="50" relative="1" as="geometry">
            <mxPoint x="20" y="15" as="sourcePoint" />
            <mxPoint x="20" y="7.5" as="targetPoint" />
          </mxGeometry>
        </mxCell>
        <mxCell id="jl4wp86xwNKo0DiwbWFK-114" value="" style="endArrow=none;html=1;rounded=0;entryX=0.75;entryY=0;entryDx=0;entryDy=0;" parent="jl4wp86xwNKo0DiwbWFK-110" target="jl4wp86xwNKo0DiwbWFK-111" edge="1">
          <mxGeometry width="50" height="50" relative="1" as="geometry">
            <mxPoint x="30" y="15" as="sourcePoint" />
            <mxPoint x="30" y="15" as="targetPoint" />
          </mxGeometry>
        </mxCell>
        <mxCell id="jl4wp86xwNKo0DiwbWFK-115" value="" style="endArrow=classic;html=1;rounded=0;exitX=1;exitY=0.5;exitDx=0;exitDy=0;entryX=0;entryY=0;entryDx=0;entryDy=0;" parent="1" source="jl4wp86xwNKo0DiwbWFK-111" target="jl4wp86xwNKo0DiwbWFK-75" edge="1">
          <mxGeometry width="50" height="50" relative="1" as="geometry">
            <mxPoint x="486" y="-650" as="sourcePoint" />
            <mxPoint x="418" y="-664" as="targetPoint" />
          </mxGeometry>
        </mxCell>
        <mxCell id="jl4wp86xwNKo0DiwbWFK-116" value="" style="endArrow=classic;html=1;rounded=0;entryX=0;entryY=0.5;entryDx=0;entryDy=0;exitX=1;exitY=0;exitDx=0;exitDy=0;" parent="1" source="jl4wp86xwNKo0DiwbWFK-76" target="jl4wp86xwNKo0DiwbWFK-111" edge="1">
          <mxGeometry width="50" height="50" relative="1" as="geometry">
            <mxPoint x="302" y="-664" as="sourcePoint" />
            <mxPoint x="-134" y="1166" as="targetPoint" />
          </mxGeometry>
        </mxCell>
        <mxCell id="jl4wp86xwNKo0DiwbWFK-139" value="" style="endArrow=classic;html=1;rounded=0;exitX=1;exitY=0.5;exitDx=0;exitDy=0;entryX=0;entryY=1;entryDx=0;entryDy=0;" parent="1" source="jl4wp86xwNKo0DiwbWFK-254" target="jl4wp86xwNKo0DiwbWFK-58" edge="1">
          <mxGeometry width="50" height="50" relative="1" as="geometry">
            <mxPoint x="414" y="-732.5" as="sourcePoint" />
            <mxPoint x="420" y="-756" as="targetPoint" />
          </mxGeometry>
        </mxCell>
        <mxCell id="jl4wp86xwNKo0DiwbWFK-140" value="" style="endArrow=classic;html=1;rounded=0;entryX=0;entryY=0.5;entryDx=0;entryDy=0;exitX=0;exitY=0;exitDx=0;exitDy=0;" parent="1" source="jl4wp86xwNKo0DiwbWFK-75" target="jl4wp86xwNKo0DiwbWFK-254" edge="1">
          <mxGeometry width="50" height="50" relative="1" as="geometry">
            <mxPoint x="420" y="-664" as="sourcePoint" />
            <mxPoint x="414" y="-692.5" as="targetPoint" />
          </mxGeometry>
        </mxCell>
        <mxCell id="jl4wp86xwNKo0DiwbWFK-147" value="" style="endArrow=classic;html=1;rounded=0;exitX=0;exitY=0.5;exitDx=0;exitDy=0;entryX=1;entryY=0;entryDx=0;entryDy=0;" parent="1" source="jl4wp86xwNKo0DiwbWFK-248" target="jl4wp86xwNKo0DiwbWFK-75" edge="1">
          <mxGeometry width="50" height="50" relative="1" as="geometry">
            <mxPoint x="454" y="-692.5" as="sourcePoint" />
            <mxPoint x="448" y="-664" as="targetPoint" />
          </mxGeometry>
        </mxCell>
        <mxCell id="jl4wp86xwNKo0DiwbWFK-148" value="" style="endArrow=classic;html=1;rounded=0;entryX=1;entryY=0.5;entryDx=0;entryDy=0;exitX=1;exitY=1;exitDx=0;exitDy=0;" parent="1" source="jl4wp86xwNKo0DiwbWFK-58" target="jl4wp86xwNKo0DiwbWFK-248" edge="1">
          <mxGeometry width="50" height="50" relative="1" as="geometry">
            <mxPoint x="448" y="-756" as="sourcePoint" />
            <mxPoint x="454" y="-732.5" as="targetPoint" />
          </mxGeometry>
        </mxCell>
        <mxCell id="jl4wp86xwNKo0DiwbWFK-240" value="" style="group;rotation=-90;" parent="1" vertex="1" connectable="0">
          <mxGeometry x="290" y="-720" width="40" height="15" as="geometry" />
        </mxCell>
        <mxCell id="jl4wp86xwNKo0DiwbWFK-241" value="" style="group;rotation=-90;" parent="jl4wp86xwNKo0DiwbWFK-240" vertex="1" connectable="0">
          <mxGeometry width="40" height="15" as="geometry" />
        </mxCell>
        <mxCell id="jl4wp86xwNKo0DiwbWFK-242" value="" style="rounded=0;whiteSpace=wrap;html=1;rotation=-90;" parent="jl4wp86xwNKo0DiwbWFK-241" vertex="1">
          <mxGeometry width="40" height="15" as="geometry" />
        </mxCell>
        <mxCell id="jl4wp86xwNKo0DiwbWFK-243" value="" style="endArrow=none;html=1;rounded=0;entryX=0.25;entryY=0;entryDx=0;entryDy=0;exitX=0.25;exitY=1;exitDx=0;exitDy=0;" parent="jl4wp86xwNKo0DiwbWFK-241" source="jl4wp86xwNKo0DiwbWFK-242" target="jl4wp86xwNKo0DiwbWFK-242" edge="1">
          <mxGeometry width="50" height="50" relative="1" as="geometry">
            <mxPoint x="30" y="15" as="sourcePoint" />
            <mxPoint x="50" y="-22.5" as="targetPoint" />
          </mxGeometry>
        </mxCell>
        <mxCell id="jl4wp86xwNKo0DiwbWFK-244" value="" style="endArrow=none;html=1;rounded=0;entryX=0.5;entryY=0;entryDx=0;entryDy=0;exitX=0.5;exitY=1;exitDx=0;exitDy=0;" parent="jl4wp86xwNKo0DiwbWFK-241" source="jl4wp86xwNKo0DiwbWFK-242" target="jl4wp86xwNKo0DiwbWFK-242" edge="1">
          <mxGeometry width="50" height="50" relative="1" as="geometry">
            <mxPoint x="30" y="7.5" as="sourcePoint" />
            <mxPoint x="20" y="7.5" as="targetPoint" />
          </mxGeometry>
        </mxCell>
        <mxCell id="jl4wp86xwNKo0DiwbWFK-245" value="" style="endArrow=none;html=1;rounded=0;entryX=0.75;entryY=0;entryDx=0;entryDy=0;exitX=0.75;exitY=1;exitDx=0;exitDy=0;" parent="jl4wp86xwNKo0DiwbWFK-241" source="jl4wp86xwNKo0DiwbWFK-242" target="jl4wp86xwNKo0DiwbWFK-242" edge="1">
          <mxGeometry width="50" height="50" relative="1" as="geometry">
            <mxPoint x="30" as="sourcePoint" />
            <mxPoint x="30" as="targetPoint" />
          </mxGeometry>
        </mxCell>
        <mxCell id="jl4wp86xwNKo0DiwbWFK-246" value="" style="group;rotation=-90;" parent="1" vertex="1" connectable="0">
          <mxGeometry x="430" y="-720" width="40" height="15" as="geometry" />
        </mxCell>
        <mxCell id="jl4wp86xwNKo0DiwbWFK-247" value="" style="group;rotation=-90;" parent="jl4wp86xwNKo0DiwbWFK-246" vertex="1" connectable="0">
          <mxGeometry width="40" height="15" as="geometry" />
        </mxCell>
        <mxCell id="jl4wp86xwNKo0DiwbWFK-248" value="" style="rounded=0;whiteSpace=wrap;html=1;rotation=-90;" parent="jl4wp86xwNKo0DiwbWFK-247" vertex="1">
          <mxGeometry width="40" height="15" as="geometry" />
        </mxCell>
        <mxCell id="jl4wp86xwNKo0DiwbWFK-249" value="" style="endArrow=none;html=1;rounded=0;entryX=0.25;entryY=0;entryDx=0;entryDy=0;exitX=0.25;exitY=1;exitDx=0;exitDy=0;" parent="jl4wp86xwNKo0DiwbWFK-247" source="jl4wp86xwNKo0DiwbWFK-248" target="jl4wp86xwNKo0DiwbWFK-248" edge="1">
          <mxGeometry width="50" height="50" relative="1" as="geometry">
            <mxPoint x="30" y="15" as="sourcePoint" />
            <mxPoint x="50" y="-22.5" as="targetPoint" />
          </mxGeometry>
        </mxCell>
        <mxCell id="jl4wp86xwNKo0DiwbWFK-250" value="" style="endArrow=none;html=1;rounded=0;entryX=0.5;entryY=0;entryDx=0;entryDy=0;exitX=0.5;exitY=1;exitDx=0;exitDy=0;" parent="jl4wp86xwNKo0DiwbWFK-247" source="jl4wp86xwNKo0DiwbWFK-248" target="jl4wp86xwNKo0DiwbWFK-248" edge="1">
          <mxGeometry width="50" height="50" relative="1" as="geometry">
            <mxPoint x="30" y="7.5" as="sourcePoint" />
            <mxPoint x="20" y="7.5" as="targetPoint" />
          </mxGeometry>
        </mxCell>
        <mxCell id="jl4wp86xwNKo0DiwbWFK-251" value="" style="endArrow=none;html=1;rounded=0;entryX=0.75;entryY=0;entryDx=0;entryDy=0;exitX=0.75;exitY=1;exitDx=0;exitDy=0;" parent="jl4wp86xwNKo0DiwbWFK-247" source="jl4wp86xwNKo0DiwbWFK-248" target="jl4wp86xwNKo0DiwbWFK-248" edge="1">
          <mxGeometry width="50" height="50" relative="1" as="geometry">
            <mxPoint x="30" as="sourcePoint" />
            <mxPoint x="30" as="targetPoint" />
          </mxGeometry>
        </mxCell>
        <mxCell id="jl4wp86xwNKo0DiwbWFK-252" value="" style="group;rotation=-90;" parent="1" vertex="1" connectable="0">
          <mxGeometry x="394" y="-720" width="40" height="15" as="geometry" />
        </mxCell>
        <mxCell id="jl4wp86xwNKo0DiwbWFK-253" value="" style="group;rotation=-90;" parent="jl4wp86xwNKo0DiwbWFK-252" vertex="1" connectable="0">
          <mxGeometry width="40" height="15" as="geometry" />
        </mxCell>
        <mxCell id="jl4wp86xwNKo0DiwbWFK-254" value="" style="rounded=0;whiteSpace=wrap;html=1;rotation=-90;" parent="jl4wp86xwNKo0DiwbWFK-253" vertex="1">
          <mxGeometry width="40" height="15" as="geometry" />
        </mxCell>
        <mxCell id="jl4wp86xwNKo0DiwbWFK-255" value="" style="endArrow=none;html=1;rounded=0;entryX=0.25;entryY=0;entryDx=0;entryDy=0;exitX=0.25;exitY=1;exitDx=0;exitDy=0;" parent="jl4wp86xwNKo0DiwbWFK-253" source="jl4wp86xwNKo0DiwbWFK-254" target="jl4wp86xwNKo0DiwbWFK-254" edge="1">
          <mxGeometry width="50" height="50" relative="1" as="geometry">
            <mxPoint x="30" y="15" as="sourcePoint" />
            <mxPoint x="50" y="-22.5" as="targetPoint" />
          </mxGeometry>
        </mxCell>
        <mxCell id="jl4wp86xwNKo0DiwbWFK-256" value="" style="endArrow=none;html=1;rounded=0;entryX=0.5;entryY=0;entryDx=0;entryDy=0;exitX=0.5;exitY=1;exitDx=0;exitDy=0;" parent="jl4wp86xwNKo0DiwbWFK-253" source="jl4wp86xwNKo0DiwbWFK-254" target="jl4wp86xwNKo0DiwbWFK-254" edge="1">
          <mxGeometry width="50" height="50" relative="1" as="geometry">
            <mxPoint x="30" y="7.5" as="sourcePoint" />
            <mxPoint x="20" y="7.5" as="targetPoint" />
          </mxGeometry>
        </mxCell>
        <mxCell id="jl4wp86xwNKo0DiwbWFK-257" value="" style="endArrow=none;html=1;rounded=0;entryX=0.75;entryY=0;entryDx=0;entryDy=0;exitX=0.75;exitY=1;exitDx=0;exitDy=0;" parent="jl4wp86xwNKo0DiwbWFK-253" source="jl4wp86xwNKo0DiwbWFK-254" target="jl4wp86xwNKo0DiwbWFK-254" edge="1">
          <mxGeometry width="50" height="50" relative="1" as="geometry">
            <mxPoint x="30" as="sourcePoint" />
            <mxPoint x="30" as="targetPoint" />
          </mxGeometry>
        </mxCell>
        <mxCell id="jl4wp86xwNKo0DiwbWFK-353" value="&lt;font size=&quot;1&quot; face=&quot;Times New Roman&quot;&gt;&lt;b style=&quot;font-size: 15px;&quot;&gt;1.0&lt;/b&gt;&lt;/font&gt;" style="ellipse;whiteSpace=wrap;html=1;fillColor=#dae8fc;strokeColor=#6c8ebf;strokeWidth=2;align=center;verticalAlign=middle;spacing=0;spacingTop=-4;" parent="1" vertex="1">
          <mxGeometry x="560" y="-780" width="40" height="40" as="geometry" />
        </mxCell>
        <mxCell id="jl4wp86xwNKo0DiwbWFK-354" value="&lt;font size=&quot;1&quot; face=&quot;Times New Roman&quot;&gt;&lt;b style=&quot;font-size: 15px;&quot;&gt;1.1&lt;/b&gt;&lt;/font&gt;" style="ellipse;whiteSpace=wrap;html=1;fillColor=#ffe6cc;strokeColor=#d79b00;strokeWidth=2;align=center;verticalAlign=middle;spacing=0;spacingTop=-4;" parent="1" vertex="1">
          <mxGeometry x="704" y="-780" width="40" height="40" as="geometry" />
        </mxCell>
        <mxCell id="jl4wp86xwNKo0DiwbWFK-355" value="" style="group" parent="1" vertex="1" connectable="0">
          <mxGeometry x="630" y="-755" width="40" height="15" as="geometry" />
        </mxCell>
        <mxCell id="jl4wp86xwNKo0DiwbWFK-356" value="" style="group" parent="jl4wp86xwNKo0DiwbWFK-355" vertex="1" connectable="0">
          <mxGeometry width="40" height="15" as="geometry" />
        </mxCell>
        <mxCell id="jl4wp86xwNKo0DiwbWFK-357" value="" style="rounded=0;whiteSpace=wrap;html=1;" parent="jl4wp86xwNKo0DiwbWFK-356" vertex="1">
          <mxGeometry width="40" height="15" as="geometry" />
        </mxCell>
        <mxCell id="jl4wp86xwNKo0DiwbWFK-358" value="" style="endArrow=none;html=1;rounded=0;entryX=0.25;entryY=0;entryDx=0;entryDy=0;" parent="jl4wp86xwNKo0DiwbWFK-356" target="jl4wp86xwNKo0DiwbWFK-357" edge="1">
          <mxGeometry width="50" height="50" relative="1" as="geometry">
            <mxPoint x="10" y="15" as="sourcePoint" />
            <mxPoint x="60" y="30" as="targetPoint" />
          </mxGeometry>
        </mxCell>
        <mxCell id="jl4wp86xwNKo0DiwbWFK-359" value="" style="endArrow=none;html=1;rounded=0;entryX=0.5;entryY=0;entryDx=0;entryDy=0;" parent="jl4wp86xwNKo0DiwbWFK-356" target="jl4wp86xwNKo0DiwbWFK-357" edge="1">
          <mxGeometry width="50" height="50" relative="1" as="geometry">
            <mxPoint x="20" y="15" as="sourcePoint" />
            <mxPoint x="20" y="7.5" as="targetPoint" />
          </mxGeometry>
        </mxCell>
        <mxCell id="jl4wp86xwNKo0DiwbWFK-360" value="" style="endArrow=none;html=1;rounded=0;entryX=0.75;entryY=0;entryDx=0;entryDy=0;" parent="jl4wp86xwNKo0DiwbWFK-356" target="jl4wp86xwNKo0DiwbWFK-357" edge="1">
          <mxGeometry width="50" height="50" relative="1" as="geometry">
            <mxPoint x="30" y="15" as="sourcePoint" />
            <mxPoint x="30" y="15" as="targetPoint" />
          </mxGeometry>
        </mxCell>
        <mxCell id="jl4wp86xwNKo0DiwbWFK-361" value="" style="endArrow=classic;html=1;rounded=0;entryX=1;entryY=0.5;entryDx=0;entryDy=0;exitX=0;exitY=1;exitDx=0;exitDy=0;" parent="1" source="jl4wp86xwNKo0DiwbWFK-354" target="jl4wp86xwNKo0DiwbWFK-357" edge="1">
          <mxGeometry width="50" height="50" relative="1" as="geometry">
            <mxPoint x="890" y="-765" as="sourcePoint" />
            <mxPoint x="702" y="-845" as="targetPoint" />
          </mxGeometry>
        </mxCell>
        <mxCell id="jl4wp86xwNKo0DiwbWFK-362" value="" style="endArrow=classic;html=1;rounded=0;exitX=0;exitY=0.5;exitDx=0;exitDy=0;entryX=1;entryY=1;entryDx=0;entryDy=0;" parent="1" source="jl4wp86xwNKo0DiwbWFK-357" target="jl4wp86xwNKo0DiwbWFK-353" edge="1">
          <mxGeometry width="50" height="50" relative="1" as="geometry">
            <mxPoint x="702" y="-845" as="sourcePoint" />
            <mxPoint x="780" y="-765" as="targetPoint" />
          </mxGeometry>
        </mxCell>
        <mxCell id="jl4wp86xwNKo0DiwbWFK-363" value="" style="group" parent="1" vertex="1" connectable="0">
          <mxGeometry x="630" y="-785" width="40" height="15" as="geometry" />
        </mxCell>
        <mxCell id="jl4wp86xwNKo0DiwbWFK-364" value="" style="group" parent="jl4wp86xwNKo0DiwbWFK-363" vertex="1" connectable="0">
          <mxGeometry width="40" height="15" as="geometry" />
        </mxCell>
        <mxCell id="jl4wp86xwNKo0DiwbWFK-365" value="" style="rounded=0;whiteSpace=wrap;html=1;" parent="jl4wp86xwNKo0DiwbWFK-364" vertex="1">
          <mxGeometry width="40" height="15" as="geometry" />
        </mxCell>
        <mxCell id="jl4wp86xwNKo0DiwbWFK-366" value="" style="endArrow=none;html=1;rounded=0;entryX=0.25;entryY=0;entryDx=0;entryDy=0;" parent="jl4wp86xwNKo0DiwbWFK-364" target="jl4wp86xwNKo0DiwbWFK-365" edge="1">
          <mxGeometry width="50" height="50" relative="1" as="geometry">
            <mxPoint x="10" y="15" as="sourcePoint" />
            <mxPoint x="60" y="30" as="targetPoint" />
          </mxGeometry>
        </mxCell>
        <mxCell id="jl4wp86xwNKo0DiwbWFK-367" value="" style="endArrow=none;html=1;rounded=0;entryX=0.5;entryY=0;entryDx=0;entryDy=0;" parent="jl4wp86xwNKo0DiwbWFK-364" target="jl4wp86xwNKo0DiwbWFK-365" edge="1">
          <mxGeometry width="50" height="50" relative="1" as="geometry">
            <mxPoint x="20" y="15" as="sourcePoint" />
            <mxPoint x="20" y="7.5" as="targetPoint" />
          </mxGeometry>
        </mxCell>
        <mxCell id="jl4wp86xwNKo0DiwbWFK-368" value="" style="endArrow=none;html=1;rounded=0;entryX=0.75;entryY=0;entryDx=0;entryDy=0;" parent="jl4wp86xwNKo0DiwbWFK-364" target="jl4wp86xwNKo0DiwbWFK-365" edge="1">
          <mxGeometry width="50" height="50" relative="1" as="geometry">
            <mxPoint x="30" y="15" as="sourcePoint" />
            <mxPoint x="30" y="15" as="targetPoint" />
          </mxGeometry>
        </mxCell>
        <mxCell id="jl4wp86xwNKo0DiwbWFK-369" value="" style="endArrow=classic;html=1;rounded=0;exitX=1;exitY=0.5;exitDx=0;exitDy=0;entryX=0;entryY=0;entryDx=0;entryDy=0;" parent="1" source="jl4wp86xwNKo0DiwbWFK-365" target="jl4wp86xwNKo0DiwbWFK-354" edge="1">
          <mxGeometry width="50" height="50" relative="1" as="geometry">
            <mxPoint x="778" y="-765" as="sourcePoint" />
            <mxPoint x="880" y="-805" as="targetPoint" />
          </mxGeometry>
        </mxCell>
        <mxCell id="jl4wp86xwNKo0DiwbWFK-370" value="" style="endArrow=classic;html=1;rounded=0;entryX=0;entryY=0.5;entryDx=0;entryDy=0;exitX=1;exitY=0;exitDx=0;exitDy=0;" parent="1" source="jl4wp86xwNKo0DiwbWFK-353" target="jl4wp86xwNKo0DiwbWFK-365" edge="1">
          <mxGeometry width="50" height="50" relative="1" as="geometry">
            <mxPoint x="780" y="-805" as="sourcePoint" />
            <mxPoint x="158" y="1051" as="targetPoint" />
          </mxGeometry>
        </mxCell>
        <mxCell id="jl4wp86xwNKo0DiwbWFK-371" value="&lt;font size=&quot;1&quot; face=&quot;Times New Roman&quot;&gt;&lt;b style=&quot;font-size: 15px;&quot;&gt;1.3&lt;/b&gt;&lt;/font&gt;" style="ellipse;whiteSpace=wrap;html=1;fillColor=#f8cecc;strokeColor=#b85450;strokeWidth=2;align=center;verticalAlign=middle;spacing=0;spacingTop=-4;" parent="1" vertex="1">
          <mxGeometry x="704" y="-670" width="40" height="40" as="geometry" />
        </mxCell>
        <mxCell id="jl4wp86xwNKo0DiwbWFK-372" value="&lt;font size=&quot;1&quot; face=&quot;Times New Roman&quot;&gt;&lt;b style=&quot;font-size: 15px;&quot;&gt;1.2&lt;/b&gt;&lt;/font&gt;" style="ellipse;whiteSpace=wrap;html=1;fillColor=#d5e8d4;strokeColor=#82b366;strokeWidth=2;align=center;verticalAlign=middle;spacing=0;spacingTop=-4;" parent="1" vertex="1">
          <mxGeometry x="560" y="-670" width="40" height="40" as="geometry" />
        </mxCell>
        <mxCell id="jl4wp86xwNKo0DiwbWFK-373" value="" style="group;rotation=-90;" parent="1" vertex="1" connectable="0">
          <mxGeometry x="540" y="-715" width="40" height="15" as="geometry" />
        </mxCell>
        <mxCell id="jl4wp86xwNKo0DiwbWFK-374" value="" style="group;rotation=-90;" parent="jl4wp86xwNKo0DiwbWFK-373" vertex="1" connectable="0">
          <mxGeometry width="40" height="15" as="geometry" />
        </mxCell>
        <mxCell id="jl4wp86xwNKo0DiwbWFK-375" value="" style="rounded=0;whiteSpace=wrap;html=1;rotation=-90;" parent="jl4wp86xwNKo0DiwbWFK-374" vertex="1">
          <mxGeometry width="40" height="15" as="geometry" />
        </mxCell>
        <mxCell id="jl4wp86xwNKo0DiwbWFK-376" value="" style="endArrow=none;html=1;rounded=0;entryX=0.25;entryY=0;entryDx=0;entryDy=0;exitX=0.25;exitY=1;exitDx=0;exitDy=0;" parent="jl4wp86xwNKo0DiwbWFK-374" source="jl4wp86xwNKo0DiwbWFK-375" target="jl4wp86xwNKo0DiwbWFK-375" edge="1">
          <mxGeometry width="50" height="50" relative="1" as="geometry">
            <mxPoint x="30" y="15" as="sourcePoint" />
            <mxPoint x="50" y="-22.5" as="targetPoint" />
          </mxGeometry>
        </mxCell>
        <mxCell id="jl4wp86xwNKo0DiwbWFK-377" value="" style="endArrow=none;html=1;rounded=0;entryX=0.5;entryY=0;entryDx=0;entryDy=0;exitX=0.5;exitY=1;exitDx=0;exitDy=0;" parent="jl4wp86xwNKo0DiwbWFK-374" source="jl4wp86xwNKo0DiwbWFK-375" target="jl4wp86xwNKo0DiwbWFK-375" edge="1">
          <mxGeometry width="50" height="50" relative="1" as="geometry">
            <mxPoint x="30" y="7.5" as="sourcePoint" />
            <mxPoint x="20" y="7.5" as="targetPoint" />
          </mxGeometry>
        </mxCell>
        <mxCell id="jl4wp86xwNKo0DiwbWFK-378" value="" style="endArrow=none;html=1;rounded=0;entryX=0.75;entryY=0;entryDx=0;entryDy=0;exitX=0.75;exitY=1;exitDx=0;exitDy=0;" parent="jl4wp86xwNKo0DiwbWFK-374" source="jl4wp86xwNKo0DiwbWFK-375" target="jl4wp86xwNKo0DiwbWFK-375" edge="1">
          <mxGeometry width="50" height="50" relative="1" as="geometry">
            <mxPoint x="30" as="sourcePoint" />
            <mxPoint x="30" as="targetPoint" />
          </mxGeometry>
        </mxCell>
        <mxCell id="jl4wp86xwNKo0DiwbWFK-379" value="" style="endArrow=classic;html=1;rounded=0;exitX=1;exitY=0.5;exitDx=0;exitDy=0;entryX=0;entryY=1;entryDx=0;entryDy=0;" parent="1" source="jl4wp86xwNKo0DiwbWFK-375" target="jl4wp86xwNKo0DiwbWFK-353" edge="1">
          <mxGeometry width="50" height="50" relative="1" as="geometry">
            <mxPoint x="788" y="-755" as="sourcePoint" />
            <mxPoint x="510" y="-725" as="targetPoint" />
          </mxGeometry>
        </mxCell>
        <mxCell id="jl4wp86xwNKo0DiwbWFK-380" value="" style="endArrow=classic;html=1;rounded=0;entryX=0;entryY=0.5;entryDx=0;entryDy=0;exitX=0;exitY=0;exitDx=0;exitDy=0;" parent="1" source="jl4wp86xwNKo0DiwbWFK-372" target="jl4wp86xwNKo0DiwbWFK-375" edge="1">
          <mxGeometry width="50" height="50" relative="1" as="geometry">
            <mxPoint x="490" y="-625" as="sourcePoint" />
            <mxPoint x="168" y="1061" as="targetPoint" />
          </mxGeometry>
        </mxCell>
        <mxCell id="jl4wp86xwNKo0DiwbWFK-381" value="" style="endArrow=classic;html=1;rounded=0;exitX=1;exitY=0.5;exitDx=0;exitDy=0;entryX=1;entryY=0;entryDx=0;entryDy=0;" parent="1" target="jl4wp86xwNKo0DiwbWFK-372" edge="1">
          <mxGeometry width="50" height="50" relative="1" as="geometry">
            <mxPoint x="600" y="-687.5" as="sourcePoint" />
            <mxPoint x="680" y="-705" as="targetPoint" />
          </mxGeometry>
        </mxCell>
        <mxCell id="jl4wp86xwNKo0DiwbWFK-382" value="" style="endArrow=classic;html=1;rounded=0;entryX=0;entryY=0.5;entryDx=0;entryDy=0;exitX=1;exitY=1;exitDx=0;exitDy=0;" parent="1" source="jl4wp86xwNKo0DiwbWFK-353" edge="1">
          <mxGeometry width="50" height="50" relative="1" as="geometry">
            <mxPoint x="600" y="-685" as="sourcePoint" />
            <mxPoint x="600" y="-727.5" as="targetPoint" />
          </mxGeometry>
        </mxCell>
        <mxCell id="jl4wp86xwNKo0DiwbWFK-383" value="" style="group" parent="1" vertex="1" connectable="0">
          <mxGeometry x="630" y="-640" width="40" height="15" as="geometry" />
        </mxCell>
        <mxCell id="jl4wp86xwNKo0DiwbWFK-384" value="" style="group" parent="jl4wp86xwNKo0DiwbWFK-383" vertex="1" connectable="0">
          <mxGeometry width="40" height="15" as="geometry" />
        </mxCell>
        <mxCell id="jl4wp86xwNKo0DiwbWFK-385" value="" style="rounded=0;whiteSpace=wrap;html=1;" parent="jl4wp86xwNKo0DiwbWFK-384" vertex="1">
          <mxGeometry width="40" height="15" as="geometry" />
        </mxCell>
        <mxCell id="jl4wp86xwNKo0DiwbWFK-386" value="" style="endArrow=none;html=1;rounded=0;entryX=0.25;entryY=0;entryDx=0;entryDy=0;" parent="jl4wp86xwNKo0DiwbWFK-384" target="jl4wp86xwNKo0DiwbWFK-385" edge="1">
          <mxGeometry width="50" height="50" relative="1" as="geometry">
            <mxPoint x="10" y="15" as="sourcePoint" />
            <mxPoint x="60" y="30" as="targetPoint" />
          </mxGeometry>
        </mxCell>
        <mxCell id="jl4wp86xwNKo0DiwbWFK-387" value="" style="endArrow=none;html=1;rounded=0;entryX=0.5;entryY=0;entryDx=0;entryDy=0;" parent="jl4wp86xwNKo0DiwbWFK-384" target="jl4wp86xwNKo0DiwbWFK-385" edge="1">
          <mxGeometry width="50" height="50" relative="1" as="geometry">
            <mxPoint x="20" y="15" as="sourcePoint" />
            <mxPoint x="20" y="7.5" as="targetPoint" />
          </mxGeometry>
        </mxCell>
        <mxCell id="jl4wp86xwNKo0DiwbWFK-388" value="" style="endArrow=none;html=1;rounded=0;entryX=0.75;entryY=0;entryDx=0;entryDy=0;" parent="jl4wp86xwNKo0DiwbWFK-384" target="jl4wp86xwNKo0DiwbWFK-385" edge="1">
          <mxGeometry width="50" height="50" relative="1" as="geometry">
            <mxPoint x="30" y="15" as="sourcePoint" />
            <mxPoint x="30" y="15" as="targetPoint" />
          </mxGeometry>
        </mxCell>
        <mxCell id="jl4wp86xwNKo0DiwbWFK-389" value="" style="endArrow=classic;html=1;rounded=0;entryX=1;entryY=0.5;entryDx=0;entryDy=0;exitX=0;exitY=1;exitDx=0;exitDy=0;" parent="1" source="jl4wp86xwNKo0DiwbWFK-371" target="jl4wp86xwNKo0DiwbWFK-385" edge="1">
          <mxGeometry width="50" height="50" relative="1" as="geometry">
            <mxPoint x="708" y="-631" as="sourcePoint" />
            <mxPoint x="700" y="-725" as="targetPoint" />
          </mxGeometry>
        </mxCell>
        <mxCell id="jl4wp86xwNKo0DiwbWFK-390" value="" style="endArrow=classic;html=1;rounded=0;exitX=0;exitY=0.5;exitDx=0;exitDy=0;entryX=1;entryY=1;entryDx=0;entryDy=0;" parent="1" source="jl4wp86xwNKo0DiwbWFK-385" target="jl4wp86xwNKo0DiwbWFK-372" edge="1">
          <mxGeometry width="50" height="50" relative="1" as="geometry">
            <mxPoint x="700" y="-725" as="sourcePoint" />
            <mxPoint x="592" y="-631" as="targetPoint" />
          </mxGeometry>
        </mxCell>
        <mxCell id="jl4wp86xwNKo0DiwbWFK-391" value="" style="group" parent="1" vertex="1" connectable="0">
          <mxGeometry x="630" y="-670" width="40" height="15" as="geometry" />
        </mxCell>
        <mxCell id="jl4wp86xwNKo0DiwbWFK-392" value="" style="group" parent="jl4wp86xwNKo0DiwbWFK-391" vertex="1" connectable="0">
          <mxGeometry width="40" height="15" as="geometry" />
        </mxCell>
        <mxCell id="jl4wp86xwNKo0DiwbWFK-393" value="" style="rounded=0;whiteSpace=wrap;html=1;" parent="jl4wp86xwNKo0DiwbWFK-392" vertex="1">
          <mxGeometry width="40" height="15" as="geometry" />
        </mxCell>
        <mxCell id="jl4wp86xwNKo0DiwbWFK-394" value="" style="endArrow=none;html=1;rounded=0;entryX=0.25;entryY=0;entryDx=0;entryDy=0;" parent="jl4wp86xwNKo0DiwbWFK-392" target="jl4wp86xwNKo0DiwbWFK-393" edge="1">
          <mxGeometry width="50" height="50" relative="1" as="geometry">
            <mxPoint x="10" y="15" as="sourcePoint" />
            <mxPoint x="60" y="30" as="targetPoint" />
          </mxGeometry>
        </mxCell>
        <mxCell id="jl4wp86xwNKo0DiwbWFK-395" value="" style="endArrow=none;html=1;rounded=0;entryX=0.5;entryY=0;entryDx=0;entryDy=0;" parent="jl4wp86xwNKo0DiwbWFK-392" target="jl4wp86xwNKo0DiwbWFK-393" edge="1">
          <mxGeometry width="50" height="50" relative="1" as="geometry">
            <mxPoint x="20" y="15" as="sourcePoint" />
            <mxPoint x="20" y="7.5" as="targetPoint" />
          </mxGeometry>
        </mxCell>
        <mxCell id="jl4wp86xwNKo0DiwbWFK-396" value="" style="endArrow=none;html=1;rounded=0;entryX=0.75;entryY=0;entryDx=0;entryDy=0;" parent="jl4wp86xwNKo0DiwbWFK-392" target="jl4wp86xwNKo0DiwbWFK-393" edge="1">
          <mxGeometry width="50" height="50" relative="1" as="geometry">
            <mxPoint x="30" y="15" as="sourcePoint" />
            <mxPoint x="30" y="15" as="targetPoint" />
          </mxGeometry>
        </mxCell>
        <mxCell id="jl4wp86xwNKo0DiwbWFK-397" value="" style="endArrow=classic;html=1;rounded=0;exitX=1;exitY=0.5;exitDx=0;exitDy=0;entryX=0;entryY=0;entryDx=0;entryDy=0;" parent="1" source="jl4wp86xwNKo0DiwbWFK-393" target="jl4wp86xwNKo0DiwbWFK-371" edge="1">
          <mxGeometry width="50" height="50" relative="1" as="geometry">
            <mxPoint x="776" y="-645" as="sourcePoint" />
            <mxPoint x="708" y="-659" as="targetPoint" />
          </mxGeometry>
        </mxCell>
        <mxCell id="jl4wp86xwNKo0DiwbWFK-398" value="" style="endArrow=classic;html=1;rounded=0;entryX=0;entryY=0.5;entryDx=0;entryDy=0;exitX=1;exitY=0;exitDx=0;exitDy=0;" parent="1" source="jl4wp86xwNKo0DiwbWFK-372" target="jl4wp86xwNKo0DiwbWFK-393" edge="1">
          <mxGeometry width="50" height="50" relative="1" as="geometry">
            <mxPoint x="592" y="-659" as="sourcePoint" />
            <mxPoint x="156" y="1171" as="targetPoint" />
          </mxGeometry>
        </mxCell>
        <mxCell id="jl4wp86xwNKo0DiwbWFK-399" value="" style="endArrow=classic;html=1;rounded=0;exitX=1;exitY=0.5;exitDx=0;exitDy=0;entryX=0;entryY=1;entryDx=0;entryDy=0;" parent="1" source="jl4wp86xwNKo0DiwbWFK-417" target="jl4wp86xwNKo0DiwbWFK-354" edge="1">
          <mxGeometry width="50" height="50" relative="1" as="geometry">
            <mxPoint x="704" y="-727.5" as="sourcePoint" />
            <mxPoint x="710" y="-751" as="targetPoint" />
          </mxGeometry>
        </mxCell>
        <mxCell id="jl4wp86xwNKo0DiwbWFK-400" value="" style="endArrow=classic;html=1;rounded=0;entryX=0;entryY=0.5;entryDx=0;entryDy=0;exitX=0;exitY=0;exitDx=0;exitDy=0;" parent="1" source="jl4wp86xwNKo0DiwbWFK-371" target="jl4wp86xwNKo0DiwbWFK-417" edge="1">
          <mxGeometry width="50" height="50" relative="1" as="geometry">
            <mxPoint x="710" y="-659" as="sourcePoint" />
            <mxPoint x="704" y="-687.5" as="targetPoint" />
          </mxGeometry>
        </mxCell>
        <mxCell id="jl4wp86xwNKo0DiwbWFK-401" value="" style="endArrow=classic;html=1;rounded=0;exitX=0;exitY=0.5;exitDx=0;exitDy=0;entryX=1;entryY=0;entryDx=0;entryDy=0;" parent="1" source="jl4wp86xwNKo0DiwbWFK-411" target="jl4wp86xwNKo0DiwbWFK-371" edge="1">
          <mxGeometry width="50" height="50" relative="1" as="geometry">
            <mxPoint x="744" y="-687.5" as="sourcePoint" />
            <mxPoint x="738" y="-659" as="targetPoint" />
          </mxGeometry>
        </mxCell>
        <mxCell id="jl4wp86xwNKo0DiwbWFK-402" value="" style="endArrow=classic;html=1;rounded=0;entryX=1;entryY=0.5;entryDx=0;entryDy=0;exitX=1;exitY=1;exitDx=0;exitDy=0;" parent="1" source="jl4wp86xwNKo0DiwbWFK-354" target="jl4wp86xwNKo0DiwbWFK-411" edge="1">
          <mxGeometry width="50" height="50" relative="1" as="geometry">
            <mxPoint x="738" y="-751" as="sourcePoint" />
            <mxPoint x="744" y="-727.5" as="targetPoint" />
          </mxGeometry>
        </mxCell>
        <mxCell id="jl4wp86xwNKo0DiwbWFK-403" value="" style="group;rotation=-90;" parent="1" vertex="1" connectable="0">
          <mxGeometry x="580" y="-715" width="40" height="15" as="geometry" />
        </mxCell>
        <mxCell id="jl4wp86xwNKo0DiwbWFK-404" value="" style="group;rotation=-90;" parent="jl4wp86xwNKo0DiwbWFK-403" vertex="1" connectable="0">
          <mxGeometry width="40" height="15" as="geometry" />
        </mxCell>
        <mxCell id="jl4wp86xwNKo0DiwbWFK-405" value="" style="rounded=0;whiteSpace=wrap;html=1;rotation=-90;" parent="jl4wp86xwNKo0DiwbWFK-404" vertex="1">
          <mxGeometry width="40" height="15" as="geometry" />
        </mxCell>
        <mxCell id="jl4wp86xwNKo0DiwbWFK-406" value="" style="endArrow=none;html=1;rounded=0;entryX=0.25;entryY=0;entryDx=0;entryDy=0;exitX=0.25;exitY=1;exitDx=0;exitDy=0;" parent="jl4wp86xwNKo0DiwbWFK-404" source="jl4wp86xwNKo0DiwbWFK-405" target="jl4wp86xwNKo0DiwbWFK-405" edge="1">
          <mxGeometry width="50" height="50" relative="1" as="geometry">
            <mxPoint x="30" y="15" as="sourcePoint" />
            <mxPoint x="50" y="-22.5" as="targetPoint" />
          </mxGeometry>
        </mxCell>
        <mxCell id="jl4wp86xwNKo0DiwbWFK-407" value="" style="endArrow=none;html=1;rounded=0;entryX=0.5;entryY=0;entryDx=0;entryDy=0;exitX=0.5;exitY=1;exitDx=0;exitDy=0;" parent="jl4wp86xwNKo0DiwbWFK-404" source="jl4wp86xwNKo0DiwbWFK-405" target="jl4wp86xwNKo0DiwbWFK-405" edge="1">
          <mxGeometry width="50" height="50" relative="1" as="geometry">
            <mxPoint x="30" y="7.5" as="sourcePoint" />
            <mxPoint x="20" y="7.5" as="targetPoint" />
          </mxGeometry>
        </mxCell>
        <mxCell id="jl4wp86xwNKo0DiwbWFK-408" value="" style="endArrow=none;html=1;rounded=0;entryX=0.75;entryY=0;entryDx=0;entryDy=0;exitX=0.75;exitY=1;exitDx=0;exitDy=0;" parent="jl4wp86xwNKo0DiwbWFK-404" source="jl4wp86xwNKo0DiwbWFK-405" target="jl4wp86xwNKo0DiwbWFK-405" edge="1">
          <mxGeometry width="50" height="50" relative="1" as="geometry">
            <mxPoint x="30" as="sourcePoint" />
            <mxPoint x="30" as="targetPoint" />
          </mxGeometry>
        </mxCell>
        <mxCell id="jl4wp86xwNKo0DiwbWFK-409" value="" style="group;rotation=-90;" parent="1" vertex="1" connectable="0">
          <mxGeometry x="720" y="-715" width="40" height="15" as="geometry" />
        </mxCell>
        <mxCell id="jl4wp86xwNKo0DiwbWFK-410" value="" style="group;rotation=-90;" parent="jl4wp86xwNKo0DiwbWFK-409" vertex="1" connectable="0">
          <mxGeometry width="40" height="15" as="geometry" />
        </mxCell>
        <mxCell id="jl4wp86xwNKo0DiwbWFK-411" value="" style="rounded=0;whiteSpace=wrap;html=1;rotation=-90;" parent="jl4wp86xwNKo0DiwbWFK-410" vertex="1">
          <mxGeometry width="40" height="15" as="geometry" />
        </mxCell>
        <mxCell id="jl4wp86xwNKo0DiwbWFK-412" value="" style="endArrow=none;html=1;rounded=0;entryX=0.25;entryY=0;entryDx=0;entryDy=0;exitX=0.25;exitY=1;exitDx=0;exitDy=0;" parent="jl4wp86xwNKo0DiwbWFK-410" source="jl4wp86xwNKo0DiwbWFK-411" target="jl4wp86xwNKo0DiwbWFK-411" edge="1">
          <mxGeometry width="50" height="50" relative="1" as="geometry">
            <mxPoint x="30" y="15" as="sourcePoint" />
            <mxPoint x="50" y="-22.5" as="targetPoint" />
          </mxGeometry>
        </mxCell>
        <mxCell id="jl4wp86xwNKo0DiwbWFK-413" value="" style="endArrow=none;html=1;rounded=0;entryX=0.5;entryY=0;entryDx=0;entryDy=0;exitX=0.5;exitY=1;exitDx=0;exitDy=0;" parent="jl4wp86xwNKo0DiwbWFK-410" source="jl4wp86xwNKo0DiwbWFK-411" target="jl4wp86xwNKo0DiwbWFK-411" edge="1">
          <mxGeometry width="50" height="50" relative="1" as="geometry">
            <mxPoint x="30" y="7.5" as="sourcePoint" />
            <mxPoint x="20" y="7.5" as="targetPoint" />
          </mxGeometry>
        </mxCell>
        <mxCell id="jl4wp86xwNKo0DiwbWFK-414" value="" style="endArrow=none;html=1;rounded=0;entryX=0.75;entryY=0;entryDx=0;entryDy=0;exitX=0.75;exitY=1;exitDx=0;exitDy=0;" parent="jl4wp86xwNKo0DiwbWFK-410" source="jl4wp86xwNKo0DiwbWFK-411" target="jl4wp86xwNKo0DiwbWFK-411" edge="1">
          <mxGeometry width="50" height="50" relative="1" as="geometry">
            <mxPoint x="30" as="sourcePoint" />
            <mxPoint x="30" as="targetPoint" />
          </mxGeometry>
        </mxCell>
        <mxCell id="jl4wp86xwNKo0DiwbWFK-415" value="" style="group;rotation=-90;" parent="1" vertex="1" connectable="0">
          <mxGeometry x="684" y="-715" width="40" height="15" as="geometry" />
        </mxCell>
        <mxCell id="jl4wp86xwNKo0DiwbWFK-416" value="" style="group;rotation=-90;" parent="jl4wp86xwNKo0DiwbWFK-415" vertex="1" connectable="0">
          <mxGeometry width="40" height="15" as="geometry" />
        </mxCell>
        <mxCell id="jl4wp86xwNKo0DiwbWFK-417" value="" style="rounded=0;whiteSpace=wrap;html=1;rotation=-90;" parent="jl4wp86xwNKo0DiwbWFK-416" vertex="1">
          <mxGeometry width="40" height="15" as="geometry" />
        </mxCell>
        <mxCell id="jl4wp86xwNKo0DiwbWFK-418" value="" style="endArrow=none;html=1;rounded=0;entryX=0.25;entryY=0;entryDx=0;entryDy=0;exitX=0.25;exitY=1;exitDx=0;exitDy=0;" parent="jl4wp86xwNKo0DiwbWFK-416" source="jl4wp86xwNKo0DiwbWFK-417" target="jl4wp86xwNKo0DiwbWFK-417" edge="1">
          <mxGeometry width="50" height="50" relative="1" as="geometry">
            <mxPoint x="30" y="15" as="sourcePoint" />
            <mxPoint x="50" y="-22.5" as="targetPoint" />
          </mxGeometry>
        </mxCell>
        <mxCell id="jl4wp86xwNKo0DiwbWFK-419" value="" style="endArrow=none;html=1;rounded=0;entryX=0.5;entryY=0;entryDx=0;entryDy=0;exitX=0.5;exitY=1;exitDx=0;exitDy=0;" parent="jl4wp86xwNKo0DiwbWFK-416" source="jl4wp86xwNKo0DiwbWFK-417" target="jl4wp86xwNKo0DiwbWFK-417" edge="1">
          <mxGeometry width="50" height="50" relative="1" as="geometry">
            <mxPoint x="30" y="7.5" as="sourcePoint" />
            <mxPoint x="20" y="7.5" as="targetPoint" />
          </mxGeometry>
        </mxCell>
        <mxCell id="jl4wp86xwNKo0DiwbWFK-420" value="" style="endArrow=none;html=1;rounded=0;entryX=0.75;entryY=0;entryDx=0;entryDy=0;exitX=0.75;exitY=1;exitDx=0;exitDy=0;" parent="jl4wp86xwNKo0DiwbWFK-416" source="jl4wp86xwNKo0DiwbWFK-417" target="jl4wp86xwNKo0DiwbWFK-417" edge="1">
          <mxGeometry width="50" height="50" relative="1" as="geometry">
            <mxPoint x="30" as="sourcePoint" />
            <mxPoint x="30" as="targetPoint" />
          </mxGeometry>
        </mxCell>
        <mxCell id="jl4wp86xwNKo0DiwbWFK-421" value="" style="group;rotation=-45;" parent="1" vertex="1" connectable="0">
          <mxGeometry x="620" y="-720" width="40" height="15" as="geometry" />
        </mxCell>
        <mxCell id="jl4wp86xwNKo0DiwbWFK-422" value="" style="group;rotation=-45;" parent="jl4wp86xwNKo0DiwbWFK-421" vertex="1" connectable="0">
          <mxGeometry width="40" height="15" as="geometry" />
        </mxCell>
        <mxCell id="jl4wp86xwNKo0DiwbWFK-423" value="" style="rounded=0;whiteSpace=wrap;html=1;rotation=-45;" parent="jl4wp86xwNKo0DiwbWFK-422" vertex="1">
          <mxGeometry width="40" height="15" as="geometry" />
        </mxCell>
        <mxCell id="jl4wp86xwNKo0DiwbWFK-424" value="" style="endArrow=none;html=1;rounded=0;entryX=0.25;entryY=0;entryDx=0;entryDy=0;" parent="jl4wp86xwNKo0DiwbWFK-422" target="jl4wp86xwNKo0DiwbWFK-423" edge="1">
          <mxGeometry width="50" height="50" relative="1" as="geometry">
            <mxPoint x="18" y="20" as="sourcePoint" />
            <mxPoint x="64" y="-5" as="targetPoint" />
          </mxGeometry>
        </mxCell>
        <mxCell id="jl4wp86xwNKo0DiwbWFK-425" value="" style="endArrow=none;html=1;rounded=0;entryX=0.5;entryY=0;entryDx=0;entryDy=0;" parent="jl4wp86xwNKo0DiwbWFK-422" target="jl4wp86xwNKo0DiwbWFK-423" edge="1">
          <mxGeometry width="50" height="50" relative="1" as="geometry">
            <mxPoint x="25" y="13" as="sourcePoint" />
            <mxPoint x="20" y="8" as="targetPoint" />
          </mxGeometry>
        </mxCell>
        <mxCell id="jl4wp86xwNKo0DiwbWFK-426" value="" style="endArrow=none;html=1;rounded=0;entryX=0.75;entryY=0;entryDx=0;entryDy=0;" parent="jl4wp86xwNKo0DiwbWFK-422" target="jl4wp86xwNKo0DiwbWFK-423" edge="1">
          <mxGeometry width="50" height="50" relative="1" as="geometry">
            <mxPoint x="32" y="6" as="sourcePoint" />
            <mxPoint x="32" y="6" as="targetPoint" />
          </mxGeometry>
        </mxCell>
        <mxCell id="jl4wp86xwNKo0DiwbWFK-427" value="" style="group;rotation=-45;" parent="1" vertex="1" connectable="0">
          <mxGeometry x="644" y="-705" width="40" height="15" as="geometry" />
        </mxCell>
        <mxCell id="jl4wp86xwNKo0DiwbWFK-428" value="" style="group;rotation=-45;" parent="jl4wp86xwNKo0DiwbWFK-427" vertex="1" connectable="0">
          <mxGeometry width="40" height="15" as="geometry" />
        </mxCell>
        <mxCell id="jl4wp86xwNKo0DiwbWFK-429" value="" style="rounded=0;whiteSpace=wrap;html=1;rotation=-45;" parent="jl4wp86xwNKo0DiwbWFK-428" vertex="1">
          <mxGeometry width="40" height="15" as="geometry" />
        </mxCell>
        <mxCell id="jl4wp86xwNKo0DiwbWFK-430" value="" style="endArrow=none;html=1;rounded=0;entryX=0.25;entryY=0;entryDx=0;entryDy=0;" parent="jl4wp86xwNKo0DiwbWFK-428" target="jl4wp86xwNKo0DiwbWFK-429" edge="1">
          <mxGeometry width="50" height="50" relative="1" as="geometry">
            <mxPoint x="18" y="20" as="sourcePoint" />
            <mxPoint x="64" y="-5" as="targetPoint" />
          </mxGeometry>
        </mxCell>
        <mxCell id="jl4wp86xwNKo0DiwbWFK-431" value="" style="endArrow=none;html=1;rounded=0;entryX=0.5;entryY=0;entryDx=0;entryDy=0;" parent="jl4wp86xwNKo0DiwbWFK-428" target="jl4wp86xwNKo0DiwbWFK-429" edge="1">
          <mxGeometry width="50" height="50" relative="1" as="geometry">
            <mxPoint x="25" y="13" as="sourcePoint" />
            <mxPoint x="20" y="8" as="targetPoint" />
          </mxGeometry>
        </mxCell>
        <mxCell id="jl4wp86xwNKo0DiwbWFK-432" value="" style="endArrow=none;html=1;rounded=0;entryX=0.75;entryY=0;entryDx=0;entryDy=0;" parent="jl4wp86xwNKo0DiwbWFK-428" target="jl4wp86xwNKo0DiwbWFK-429" edge="1">
          <mxGeometry width="50" height="50" relative="1" as="geometry">
            <mxPoint x="32" y="6" as="sourcePoint" />
            <mxPoint x="32" y="6" as="targetPoint" />
          </mxGeometry>
        </mxCell>
        <mxCell id="jl4wp86xwNKo0DiwbWFK-433" value="" style="endArrow=classic;html=1;rounded=0;entryX=1;entryY=0.5;entryDx=0;entryDy=0;exitX=0;exitY=1;exitDx=0;exitDy=0;" parent="1" source="jl4wp86xwNKo0DiwbWFK-354" target="jl4wp86xwNKo0DiwbWFK-423" edge="1">
          <mxGeometry width="50" height="50" relative="1" as="geometry">
            <mxPoint x="720" y="-736" as="sourcePoint" />
            <mxPoint x="680" y="-737" as="targetPoint" />
          </mxGeometry>
        </mxCell>
        <mxCell id="jl4wp86xwNKo0DiwbWFK-434" value="" style="endArrow=classic;html=1;rounded=0;entryX=1;entryY=0;entryDx=0;entryDy=0;exitX=0;exitY=0.5;exitDx=0;exitDy=0;" parent="1" source="jl4wp86xwNKo0DiwbWFK-423" target="jl4wp86xwNKo0DiwbWFK-372" edge="1">
          <mxGeometry width="50" height="50" relative="1" as="geometry">
            <mxPoint x="730" y="-726" as="sourcePoint" />
            <mxPoint x="690" y="-727" as="targetPoint" />
          </mxGeometry>
        </mxCell>
        <mxCell id="jl4wp86xwNKo0DiwbWFK-435" value="" style="endArrow=classic;html=1;rounded=0;entryX=0;entryY=0.5;entryDx=0;entryDy=0;exitX=1;exitY=0;exitDx=0;exitDy=0;" parent="1" source="jl4wp86xwNKo0DiwbWFK-372" target="jl4wp86xwNKo0DiwbWFK-429" edge="1">
          <mxGeometry width="50" height="50" relative="1" as="geometry">
            <mxPoint x="740" y="-716" as="sourcePoint" />
            <mxPoint x="700" y="-717" as="targetPoint" />
          </mxGeometry>
        </mxCell>
        <mxCell id="jl4wp86xwNKo0DiwbWFK-436" value="" style="endArrow=classic;html=1;rounded=0;entryX=0;entryY=1;entryDx=0;entryDy=0;exitX=1;exitY=0.5;exitDx=0;exitDy=0;" parent="1" source="jl4wp86xwNKo0DiwbWFK-429" target="jl4wp86xwNKo0DiwbWFK-354" edge="1">
          <mxGeometry width="50" height="50" relative="1" as="geometry">
            <mxPoint x="750" y="-706" as="sourcePoint" />
            <mxPoint x="710" y="-707" as="targetPoint" />
          </mxGeometry>
        </mxCell>
        <mxCell id="K4u5sSGFvWo-_EC-0Q2z-85" value="&lt;font face=&quot;Times New Roman&quot; style=&quot;font-size: 11px;&quot;&gt;&lt;b style=&quot;font-size: 11px;&quot;&gt;A&lt;br style=&quot;font-size: 11px;&quot;&gt;1.0Hz&lt;/b&gt;&lt;/font&gt;" style="ellipse;whiteSpace=wrap;html=1;fillColor=#dae8fc;strokeColor=#6c8ebf;strokeWidth=2;align=center;verticalAlign=middle;spacing=0;spacingTop=-4;fontSize=11;" vertex="1" parent="1">
          <mxGeometry x="246" y="-280" width="40" height="40" as="geometry" />
        </mxCell>
        <mxCell id="K4u5sSGFvWo-_EC-0Q2z-86" value="&lt;font face=&quot;Times New Roman&quot; style=&quot;font-size: 11px;&quot;&gt;&lt;b style=&quot;font-size: 11px;&quot;&gt;B&lt;br style=&quot;font-size: 11px;&quot;&gt;1.1Hz&lt;/b&gt;&lt;/font&gt;" style="ellipse;whiteSpace=wrap;html=1;fillColor=#ffe6cc;strokeColor=#d79b00;strokeWidth=2;align=center;verticalAlign=middle;spacing=0;spacingTop=-4;fontSize=11;" vertex="1" parent="1">
          <mxGeometry x="390" y="-280" width="40" height="40" as="geometry" />
        </mxCell>
        <mxCell id="K4u5sSGFvWo-_EC-0Q2z-87" value="&lt;font face=&quot;Times New Roman&quot; style=&quot;font-size: 11px;&quot;&gt;&lt;b style=&quot;font-size: 11px;&quot;&gt;D&lt;br style=&quot;font-size: 11px;&quot;&gt;1.3Hz&lt;/b&gt;&lt;/font&gt;" style="ellipse;whiteSpace=wrap;html=1;fillColor=#f8cecc;strokeColor=#b85450;strokeWidth=2;align=center;verticalAlign=middle;spacing=0;spacingTop=-4;fontSize=11;" vertex="1" parent="1">
          <mxGeometry x="390" y="-170" width="40" height="40" as="geometry" />
        </mxCell>
        <mxCell id="K4u5sSGFvWo-_EC-0Q2z-88" value="&lt;font face=&quot;Times New Roman&quot; style=&quot;font-size: 11px;&quot;&gt;&lt;b style=&quot;font-size: 11px;&quot;&gt;C&lt;br style=&quot;font-size: 11px;&quot;&gt;1.2Hz&lt;/b&gt;&lt;/font&gt;" style="ellipse;whiteSpace=wrap;html=1;fillColor=#d5e8d4;strokeColor=#82b366;strokeWidth=2;align=center;verticalAlign=middle;spacing=0;spacingTop=-4;fontSize=11;" vertex="1" parent="1">
          <mxGeometry x="246" y="-170" width="40" height="40" as="geometry" />
        </mxCell>
        <mxCell id="K4u5sSGFvWo-_EC-0Q2z-89" value="&lt;font style=&quot;font-size: 12px;&quot; face=&quot;Times New Roman&quot;&gt;50&lt;/font&gt;" style="endArrow=classic;html=1;exitX=1;exitY=0;exitDx=0;exitDy=0;entryX=0;entryY=0;entryDx=0;entryDy=0;curved=1;" edge="1" parent="1" source="K4u5sSGFvWo-_EC-0Q2z-85" target="K4u5sSGFvWo-_EC-0Q2z-86">
          <mxGeometry x="0.0834" y="-10" width="50" height="50" relative="1" as="geometry">
            <mxPoint x="390" y="-210" as="sourcePoint" />
            <mxPoint x="440" y="-260" as="targetPoint" />
            <Array as="points">
              <mxPoint x="340" y="-290" />
            </Array>
            <mxPoint as="offset" />
          </mxGeometry>
        </mxCell>
        <mxCell id="K4u5sSGFvWo-_EC-0Q2z-90" value="&lt;meta charset=&quot;utf-8&quot;&gt;&lt;span style=&quot;color: rgb(0, 0, 0); font-family: &amp;quot;Times New Roman&amp;quot;; font-size: 12px; font-style: normal; font-variant-ligatures: normal; font-variant-caps: normal; font-weight: 400; letter-spacing: normal; orphans: 2; text-align: center; text-indent: 0px; text-transform: none; widows: 2; word-spacing: 0px; -webkit-text-stroke-width: 0px; background-color: rgb(255, 255, 255); text-decoration-thickness: initial; text-decoration-style: initial; text-decoration-color: initial; float: none; display: inline !important;&quot;&gt;50&lt;/span&gt;" style="endArrow=classic;html=1;entryX=1;entryY=1;entryDx=0;entryDy=0;exitX=0;exitY=1;exitDx=0;exitDy=0;curved=1;" edge="1" parent="1" source="K4u5sSGFvWo-_EC-0Q2z-86" target="K4u5sSGFvWo-_EC-0Q2z-85">
          <mxGeometry x="-0.0777" y="-10" width="50" height="50" relative="1" as="geometry">
            <mxPoint x="390" y="-350" as="sourcePoint" />
            <mxPoint x="440" y="-400" as="targetPoint" />
            <Array as="points">
              <mxPoint x="340" y="-230" />
            </Array>
            <mxPoint as="offset" />
          </mxGeometry>
        </mxCell>
        <mxCell id="K4u5sSGFvWo-_EC-0Q2z-91" value="&lt;meta charset=&quot;utf-8&quot;&gt;&lt;span style=&quot;color: rgb(0, 0, 0); font-family: &amp;quot;Times New Roman&amp;quot;; font-size: 12px; font-style: normal; font-variant-ligatures: normal; font-variant-caps: normal; font-weight: 400; letter-spacing: normal; orphans: 2; text-align: center; text-indent: 0px; text-transform: none; widows: 2; word-spacing: 0px; -webkit-text-stroke-width: 0px; background-color: rgb(255, 255, 255); text-decoration-thickness: initial; text-decoration-style: initial; text-decoration-color: initial; float: none; display: inline !important;&quot;&gt;50&lt;/span&gt;" style="endArrow=classic;html=1;entryX=0;entryY=1;entryDx=0;entryDy=0;exitX=0;exitY=0;exitDx=0;exitDy=0;curved=1;" edge="1" parent="1" source="K4u5sSGFvWo-_EC-0Q2z-87" target="K4u5sSGFvWo-_EC-0Q2z-86">
          <mxGeometry x="-0.1984" y="-9" width="50" height="50" relative="1" as="geometry">
            <mxPoint x="406" y="-236" as="sourcePoint" />
            <mxPoint x="290" y="-236" as="targetPoint" />
            <Array as="points">
              <mxPoint x="380" y="-200" />
            </Array>
            <mxPoint as="offset" />
          </mxGeometry>
        </mxCell>
        <mxCell id="K4u5sSGFvWo-_EC-0Q2z-92" value="&lt;meta charset=&quot;utf-8&quot;&gt;&lt;span style=&quot;color: rgb(0, 0, 0); font-family: &amp;quot;Times New Roman&amp;quot;; font-size: 12px; font-style: normal; font-variant-ligatures: normal; font-variant-caps: normal; font-weight: 400; letter-spacing: normal; orphans: 2; text-align: center; text-indent: 0px; text-transform: none; widows: 2; word-spacing: 0px; -webkit-text-stroke-width: 0px; background-color: rgb(255, 255, 255); text-decoration-thickness: initial; text-decoration-style: initial; text-decoration-color: initial; float: none; display: inline !important;&quot;&gt;50&lt;/span&gt;" style="endArrow=classic;html=1;entryX=1;entryY=0;entryDx=0;entryDy=0;exitX=1;exitY=1;exitDx=0;exitDy=0;curved=1;" edge="1" parent="1" source="K4u5sSGFvWo-_EC-0Q2z-86" target="K4u5sSGFvWo-_EC-0Q2z-87">
          <mxGeometry x="0.2082" y="-9" width="50" height="50" relative="1" as="geometry">
            <mxPoint x="406" y="-154" as="sourcePoint" />
            <mxPoint x="406" y="-236" as="targetPoint" />
            <Array as="points">
              <mxPoint x="440" y="-200" />
            </Array>
            <mxPoint as="offset" />
          </mxGeometry>
        </mxCell>
        <mxCell id="K4u5sSGFvWo-_EC-0Q2z-93" value="&lt;meta charset=&quot;utf-8&quot;&gt;&lt;span style=&quot;color: rgb(0, 0, 0); font-family: &amp;quot;Times New Roman&amp;quot;; font-size: 12px; font-style: normal; font-variant-ligatures: normal; font-variant-caps: normal; font-weight: 400; letter-spacing: normal; orphans: 2; text-align: center; text-indent: 0px; text-transform: none; widows: 2; word-spacing: 0px; -webkit-text-stroke-width: 0px; background-color: rgb(255, 255, 255); text-decoration-thickness: initial; text-decoration-style: initial; text-decoration-color: initial; float: none; display: inline !important;&quot;&gt;50&lt;/span&gt;" style="endArrow=classic;html=1;entryX=1;entryY=1;entryDx=0;entryDy=0;exitX=0;exitY=1;exitDx=0;exitDy=0;curved=1;" edge="1" parent="1" source="K4u5sSGFvWo-_EC-0Q2z-87" target="K4u5sSGFvWo-_EC-0Q2z-88">
          <mxGeometry x="-0.0777" y="-10" width="50" height="50" relative="1" as="geometry">
            <mxPoint x="434" y="-236" as="sourcePoint" />
            <mxPoint x="434" y="-154" as="targetPoint" />
            <Array as="points">
              <mxPoint x="340" y="-120" />
            </Array>
            <mxPoint as="offset" />
          </mxGeometry>
        </mxCell>
        <mxCell id="K4u5sSGFvWo-_EC-0Q2z-94" value="&lt;meta charset=&quot;utf-8&quot;&gt;&lt;span style=&quot;color: rgb(0, 0, 0); font-family: &amp;quot;Times New Roman&amp;quot;; font-size: 12px; font-style: normal; font-variant-ligatures: normal; font-variant-caps: normal; font-weight: 400; letter-spacing: normal; orphans: 2; text-align: center; text-indent: 0px; text-transform: none; widows: 2; word-spacing: 0px; -webkit-text-stroke-width: 0px; background-color: rgb(255, 255, 255); text-decoration-thickness: initial; text-decoration-style: initial; text-decoration-color: initial; float: none; display: inline !important;&quot;&gt;50&lt;/span&gt;" style="endArrow=classic;html=1;entryX=0;entryY=0;entryDx=0;entryDy=0;exitX=1;exitY=0;exitDx=0;exitDy=0;curved=1;" edge="1" parent="1" source="K4u5sSGFvWo-_EC-0Q2z-88" target="K4u5sSGFvWo-_EC-0Q2z-87">
          <mxGeometry x="0.0777" y="-10" width="50" height="50" relative="1" as="geometry">
            <mxPoint x="444" y="-226" as="sourcePoint" />
            <mxPoint x="444" y="-144" as="targetPoint" />
            <Array as="points">
              <mxPoint x="340" y="-180" />
            </Array>
            <mxPoint as="offset" />
          </mxGeometry>
        </mxCell>
        <mxCell id="K4u5sSGFvWo-_EC-0Q2z-95" value="&lt;meta charset=&quot;utf-8&quot;&gt;&lt;span style=&quot;color: rgb(0, 0, 0); font-family: &amp;quot;Times New Roman&amp;quot;; font-size: 12px; font-style: normal; font-variant-ligatures: normal; font-variant-caps: normal; font-weight: 400; letter-spacing: normal; orphans: 2; text-align: center; text-indent: 0px; text-transform: none; widows: 2; word-spacing: 0px; -webkit-text-stroke-width: 0px; background-color: rgb(255, 255, 255); text-decoration-thickness: initial; text-decoration-style: initial; text-decoration-color: initial; float: none; display: inline !important;&quot;&gt;50&lt;/span&gt;" style="endArrow=classic;html=1;entryX=0;entryY=1;entryDx=0;entryDy=0;exitX=0;exitY=0;exitDx=0;exitDy=0;curved=1;" edge="1" parent="1" source="K4u5sSGFvWo-_EC-0Q2z-88" target="K4u5sSGFvWo-_EC-0Q2z-85">
          <mxGeometry x="0.1865" y="-9" width="50" height="50" relative="1" as="geometry">
            <mxPoint x="290" y="-154" as="sourcePoint" />
            <mxPoint x="406" y="-154" as="targetPoint" />
            <Array as="points">
              <mxPoint x="240" y="-210" />
            </Array>
            <mxPoint y="1" as="offset" />
          </mxGeometry>
        </mxCell>
        <mxCell id="K4u5sSGFvWo-_EC-0Q2z-96" value="&lt;meta charset=&quot;utf-8&quot;&gt;&lt;span style=&quot;color: rgb(0, 0, 0); font-family: &amp;quot;Times New Roman&amp;quot;; font-size: 12px; font-style: normal; font-variant-ligatures: normal; font-variant-caps: normal; font-weight: 400; letter-spacing: normal; orphans: 2; text-align: center; text-indent: 0px; text-transform: none; widows: 2; word-spacing: 0px; -webkit-text-stroke-width: 0px; background-color: rgb(255, 255, 255); text-decoration-thickness: initial; text-decoration-style: initial; text-decoration-color: initial; float: none; display: inline !important;&quot;&gt;50&lt;/span&gt;" style="endArrow=classic;html=1;entryX=1;entryY=0;entryDx=0;entryDy=0;exitX=1;exitY=1;exitDx=0;exitDy=0;curved=1;" edge="1" parent="1" source="K4u5sSGFvWo-_EC-0Q2z-85" target="K4u5sSGFvWo-_EC-0Q2z-88">
          <mxGeometry width="50" height="50" relative="1" as="geometry">
            <mxPoint x="262" y="-154" as="sourcePoint" />
            <mxPoint x="262" y="-236" as="targetPoint" />
            <Array as="points">
              <mxPoint x="290" y="-210" />
            </Array>
          </mxGeometry>
        </mxCell>
        <mxCell id="K4u5sSGFvWo-_EC-0Q2z-97" value="&lt;meta charset=&quot;utf-8&quot;&gt;&lt;span style=&quot;color: rgb(0, 0, 0); font-family: &amp;quot;Times New Roman&amp;quot;; font-size: 12px; font-style: normal; font-variant-ligatures: normal; font-variant-caps: normal; font-weight: 400; letter-spacing: normal; orphans: 2; text-align: center; text-indent: 0px; text-transform: none; widows: 2; word-spacing: 0px; -webkit-text-stroke-width: 0px; background-color: rgb(255, 255, 255); text-decoration-thickness: initial; text-decoration-style: initial; text-decoration-color: initial; float: none; display: inline !important;&quot;&gt;50&lt;/span&gt;" style="endArrow=classic;html=1;entryX=0;entryY=1;entryDx=0;entryDy=0;exitX=1;exitY=0;exitDx=0;exitDy=0;curved=1;" edge="1" parent="1" source="K4u5sSGFvWo-_EC-0Q2z-88" target="K4u5sSGFvWo-_EC-0Q2z-86">
          <mxGeometry x="-0.2249" y="-10" width="50" height="50" relative="1" as="geometry">
            <mxPoint x="272" y="-144" as="sourcePoint" />
            <mxPoint x="272" y="-226" as="targetPoint" />
            <Array as="points">
              <mxPoint x="320" y="-230" />
            </Array>
            <mxPoint as="offset" />
          </mxGeometry>
        </mxCell>
        <mxCell id="K4u5sSGFvWo-_EC-0Q2z-98" value="&lt;meta charset=&quot;utf-8&quot;&gt;&lt;span style=&quot;color: rgb(0, 0, 0); font-family: &amp;quot;Times New Roman&amp;quot;; font-size: 12px; font-style: normal; font-variant-ligatures: normal; font-variant-caps: normal; font-weight: 400; letter-spacing: normal; orphans: 2; text-align: center; text-indent: 0px; text-transform: none; widows: 2; word-spacing: 0px; -webkit-text-stroke-width: 0px; background-color: rgb(255, 255, 255); text-decoration-thickness: initial; text-decoration-style: initial; text-decoration-color: initial; float: none; display: inline !important;&quot;&gt;50&lt;/span&gt;" style="endArrow=classic;html=1;entryX=1;entryY=0;entryDx=0;entryDy=0;curved=1;exitX=0;exitY=1;exitDx=0;exitDy=0;" edge="1" parent="1" source="K4u5sSGFvWo-_EC-0Q2z-86" target="K4u5sSGFvWo-_EC-0Q2z-88">
          <mxGeometry x="-0.2657" y="-10" width="50" height="50" relative="1" as="geometry">
            <mxPoint x="550" y="-180" as="sourcePoint" />
            <mxPoint x="406" y="-236" as="targetPoint" />
            <Array as="points">
              <mxPoint x="360" y="-180" />
            </Array>
            <mxPoint y="1" as="offset" />
          </mxGeometry>
        </mxCell>
      </root>
    </mxGraphModel>
  </diagram>
</mxfile>
